<?xml version="1.0" encoding="utf-8"?>
<!-- Generator: Avocode 2.4.2-d618096 - http://avocode.com -->
<svg height="58" width="63" xmlns:xlink="http://www.w3.org/1999/xlink" xmlns="http://www.w3.org/2000/svg" viewBox="0 0 63 58">
    <path fill="#7c7c7b" fill-rule="evenodd" d="M 51.09 27.52 C 51.11 27.92 51.12 28.32 51.12 28.73 C 51.12 40.6 41.43 50.27 29.51 50.27 C 17.59 50.27 7.89 40.6 7.89 28.73 C 7.89 16.86 17.59 7.2 29.51 7.2 C 35.06 7.2 40.13 9.3 43.96 12.74 L 49.04 7.68 C 43.9 2.95 37.04 0.05 29.51 0.05 C 13.63 0.05 0.72 12.91 0.72 28.73 C 0.72 44.55 13.63 57.42 29.51 57.42 C 45.38 57.42 58.3 44.55 58.3 28.73 C 58.3 26.17 57.96 23.69 57.32 21.32 L 51.09 27.52" />
    <path fill="#e20074" fill-rule="evenodd" d="M 29.03 42.23 C 28.09 42.23 27.15 41.86 26.49 41.2 L 13.79 29.2 C 12.28 27.8 12.19 25.36 13.6 23.86 C 15.01 22.36 17.45 22.27 18.96 23.67 L 29.03 33.23 L 56.03 6.33 C 57.53 4.83 59.89 4.83 61.39 6.33 C 62.9 7.83 62.9 10.17 61.39 11.67 L 31.76 41.11 C 31 41.86 30.06 42.23 29.03 42.23" />
</svg>