<?xml version="1.0" encoding="UTF-8" standalone="no"?>
<svg width="202px" height="16px" viewBox="0 0 202 16" version="1.1" xmlns="http://www.w3.org/2000/svg" xmlns:xlink="http://www.w3.org/1999/xlink" xmlns:sketch="http://www.bohemiancoding.com/sketch/ns">
    <!-- Generator: Sketch 3.3.3 (12072) - http://www.bohemiancoding.com/sketch -->
    <title>logo_Telekom_slogan</title>
    <desc>Created with Sketch.</desc>
    <defs></defs>
    <g id="Layout" stroke="none" stroke-width="1" fill="none" fill-rule="evenodd" sketch:type="MSPage">
        <g id="Desktop" sketch:type="MSArtboardGroup" transform="translate(-1088.000000, -74.000000)" fill="#E20074">
            <g id="Header" sketch:type="MSLayerGroup">
                <g id="Markenlabel" transform="translate(150.000000, 50.000000)" sketch:type="MSShapeGroup">
                    <path d="M938,38.9352727 L938,24.3415455 L941.132636,24.3415455 L941.132636,36.2183636 L946.863182,36.2183636 L946.863182,38.9352727 L938,38.9352727 L938,38.9352727 Z M948.736273,24.3415455 L951.867364,24.3415455 L951.867364,38.9352727 L948.736273,38.9352727 L948.736273,24.3415455 Z M984.654182,24.3415455 L987.785273,24.3415455 L987.785273,38.9352727 L984.654182,38.9352727 L984.654182,24.3415455 Z M954.717182,38.9352727 L954.717182,24.3415455 L963.549455,24.3415455 L963.549455,27.0151818 L957.806545,27.0151818 L957.806545,30.4136364 L962.779818,30.4136364 L962.779818,32.959 L957.806545,32.959 L957.806545,38.9352727 L954.717182,38.9352727 L954.717182,38.9352727 Z M965.433364,38.9352727 L965.433364,24.3415455 L974.746273,24.3415455 L974.746273,27.0151818 L968.567545,27.0151818 L968.567545,30.137 L974.213091,30.137 L974.213091,32.6808182 L968.567545,32.6808182 L968.567545,36.2631818 L974.876091,36.2631818 L974.876091,38.9352727 L965.433364,38.9352727 L965.433364,38.9352727 Z M990.438818,34.6698182 L993.594636,34.6698182 C993.679636,35.2400909 993.812545,35.6635455 993.990273,35.9417273 C994.359636,36.512 994.894364,36.7979091 995.592909,36.7979091 C996.214182,36.7979091 996.694818,36.6047273 997.037909,36.2183636 C997.336182,35.8922727 997.486091,35.4780909 997.486091,34.9804545 C997.486091,34.4163636 997.248091,33.9388182 996.770545,33.5478182 C996.541818,33.3623636 996.252818,33.1939091 995.903545,33.0470909 C995.804636,33.0007273 995.443,32.8693636 994.823273,32.6483636 C993.627091,32.228 992.760091,31.8091818 992.226909,31.3872727 C991.163636,30.5465455 990.633545,29.4446364 990.633545,28.0846364 C990.633545,26.9147273 991.001364,25.9642727 991.744727,25.2286364 C992.57,24.4172727 993.715182,24.0108182 995.177182,24.0108182 C996.999273,24.0108182 998.368545,24.6351818 999.281909,25.8808182 C999.71,26.4665455 999.991273,27.2361818 1000.12727,28.1897273 L997.070364,28.1897273 C996.996182,27.6287273 996.818455,27.2176364 996.534091,26.9610909 C996.192545,26.6612727 995.732,26.5129091 995.155545,26.5129091 C994.664091,26.5129091 994.279273,26.6303636 993.999545,26.8652727 C993.679636,27.128 993.517364,27.5035455 993.517364,27.9872727 C993.517364,28.5359091 993.761545,28.9779091 994.246818,29.3148182 C994.603818,29.5698182 995.308545,29.8696364 996.362545,30.2127273 C997.597364,30.6099091 998.550909,31.0781818 999.229364,31.6129091 C1000.21382,32.3964545 1000.70373,33.4504545 1000.70373,34.778 C1000.70373,36.1009091 1000.24782,37.1780909 999.334455,38.0064545 C998.387091,38.8610909 997.121364,39.2891818 995.540364,39.2891818 C993.651818,39.2891818 992.243909,38.5798182 991.318182,37.1610909 C990.846818,36.4331818 990.554727,35.6032727 990.438818,34.6698182 L990.438818,34.6698182 Z M1008.18218,38.9352727 L1008.18218,24.3415455 L1017.01291,24.3415455 L1017.01291,27.0151818 L1011.27155,27.0151818 L1011.27155,30.4136364 L1016.24482,30.4136364 L1016.24482,32.959 L1011.27155,32.959 L1011.27155,38.9352727 L1008.18218,38.9352727 L1008.18218,38.9352727 Z M1024.51609,24.0108182 C1026.19755,24.0108182 1027.59773,24.6382727 1028.71818,25.8931818 C1029.99318,27.3103636 1030.63145,29.2282727 1030.63145,31.6438182 C1030.63145,33.7100909 1030.14927,35.4394545 1029.18645,36.8303636 C1028.61773,37.6494545 1027.89755,38.2769091 1027.029,38.7127273 C1026.25009,39.096 1025.38618,39.2891818 1024.43109,39.2891818 C1022.371,39.2891818 1020.75755,38.4515455 1019.59845,36.7762727 C1018.65727,35.4224545 1018.18591,33.7193636 1018.18591,31.6654545 C1018.18591,29.2545455 1018.79636,27.3598182 1020.01418,25.9766364 C1021.17018,24.6660909 1022.66927,24.0108182 1024.51609,24.0108182 L1024.51609,24.0108182 Z M1024.377,26.6829091 C1023.43582,26.6829091 1022.70173,27.1357273 1022.17473,28.0413636 C1021.60291,29.0242727 1021.31855,30.2158182 1021.31855,31.6129091 C1021.31855,33.0733636 1021.59982,34.2880909 1022.16391,35.2570909 C1022.422,35.6990909 1022.79909,36.0560909 1023.29673,36.3280909 C1023.65991,36.5212727 1024.04627,36.614 1024.45273,36.614 C1025.04309,36.614 1025.57936,36.4084545 1026.05536,35.9958182 C1026.53291,35.5816364 1026.90536,34.9263636 1027.16809,34.0269091 C1027.38909,33.2727273 1027.49882,32.4721818 1027.49882,31.6221818 C1027.49882,30.1972727 1027.22064,29.0026364 1026.66582,28.0413636 C1026.13727,27.1357273 1025.37691,26.6829091 1024.377,26.6829091 L1024.377,26.6829091 Z M1032.90636,38.9352727 L1032.90636,24.3415455 L1038.51945,24.3415455 C1039.98764,24.3415455 1041.12509,24.663 1041.93182,25.3043636 C1042.84982,26.0384545 1043.30882,27.0754545 1043.30882,28.4153636 C1043.30882,29.5203636 1042.98427,30.4507273 1042.33673,31.2049091 C1042.05236,31.5340909 1041.67836,31.8122727 1041.21473,32.0379091 C1041.80664,32.2249091 1042.26409,32.5973636 1042.59173,33.1521818 C1042.80655,33.4937273 1042.96109,34.0006364 1043.05227,34.6698182 C1043.094,34.9047273 1043.16045,35.6357273 1043.24545,36.8612727 C1043.30264,37.6247273 1043.38145,38.1378182 1043.48036,38.4005455 C1043.53755,38.5427273 1043.62718,38.722 1043.74773,38.9352727 L1040.51927,38.9352727 C1040.41882,38.7003636 1040.34773,38.4221818 1040.306,38.1022727 C1040.28436,37.923 1040.23491,37.2970909 1040.15609,36.2183636 C1040.07573,35.2076364 1039.94745,34.5338182 1039.77127,34.2 C1039.55645,33.7286364 1039.22882,33.4303636 1038.78682,33.3020909 C1038.56582,33.2371818 1038.25055,33.2031818 1037.83482,33.2031818 L1036.039,33.2031818 L1036.039,38.9352727 L1032.90636,38.9352727 L1032.90636,38.9352727 Z M1036.039,30.8432727 L1037.76064,30.8432727 C1038.70955,30.8432727 1039.36173,30.6439091 1039.71873,30.2420909 C1040.02318,29.8959091 1040.17773,29.4090909 1040.17773,28.7893636 C1040.17773,28.0413636 1039.92118,27.4927273 1039.40655,27.1434545 C1039.10055,26.9363636 1038.57355,26.8328182 1037.82555,26.8328182 L1036.039,26.8328182 L1036.039,30.8432727 L1036.039,30.8432727 Z M1050.89236,34.6698182 L1054.04818,34.6698182 C1054.13473,35.2400909 1054.26609,35.6635455 1054.44227,35.9417273 C1054.81318,36.512 1055.34791,36.7979091 1056.048,36.7979091 C1056.66773,36.7979091 1057.14836,36.6047273 1057.48991,36.2183636 C1057.78973,35.8922727 1057.93964,35.4780909 1057.93964,34.9804545 C1057.93964,34.4163636 1057.70164,33.9388182 1057.22409,33.5478182 C1056.99536,33.3623636 1056.70636,33.1939091 1056.35709,33.0470909 C1056.25818,33.0007273 1055.89809,32.8693636 1055.27682,32.6483636 C1054.08064,32.228 1053.21364,31.8091818 1052.68045,31.3872727 C1051.61718,30.5465455 1051.08709,29.4446364 1051.08709,28.0846364 C1051.08709,26.9147273 1051.45645,25.9642727 1052.19827,25.2286364 C1053.02509,24.4172727 1054.17027,24.0108182 1055.63073,24.0108182 C1057.45591,24.0108182 1058.82364,24.6351818 1059.73545,25.8808182 C1060.16355,26.4665455 1060.44482,27.2361818 1060.58082,28.1897273 L1057.52236,28.1897273 C1057.45127,27.6287273 1057.272,27.2176364 1056.98764,26.9610909 C1056.64609,26.6612727 1056.18709,26.5129091 1055.60909,26.5129091 C1055.11764,26.5129091 1054.73282,26.6303636 1054.45309,26.8652727 C1054.13473,27.128 1053.974,27.5035455 1053.974,27.9872727 C1053.974,28.5359091 1054.21664,28.9779091 1054.70036,29.3148182 C1055.05736,29.5698182 1055.76209,29.8696364 1056.81609,30.2127273 C1058.05091,30.6099091 1059.006,31.0781818 1059.68291,31.6129091 C1060.66736,32.3964545 1061.15882,33.4504545 1061.15882,34.778 C1061.15882,36.1009091 1060.70136,37.1780909 1059.78955,38.0064545 C1058.84064,38.8610909 1057.578,39.2891818 1055.99236,39.2891818 C1054.10536,39.2891818 1052.69591,38.5798182 1051.77173,37.1610909 C1051.30036,36.4331818 1051.00827,35.6032727 1050.89236,34.6698182 L1050.89236,34.6698182 Z M1063.25909,38.9352727 L1063.25909,24.3415455 L1066.39173,24.3415455 L1066.39173,29.8912727 L1071.04355,29.8912727 L1071.04355,24.3415455 L1074.17464,24.3415455 L1074.17464,38.9352727 L1071.04355,38.9352727 L1071.04355,32.5633636 L1066.39173,32.5633636 L1066.39173,38.9352727 L1063.25909,38.9352727 L1063.25909,38.9352727 Z M1080.38118,24.3415455 L1083.58955,24.3415455 L1088.20736,38.9352727 L1084.948,38.9352727 L1084.03773,35.6759091 L1079.87891,35.6759091 L1078.95936,38.9352727 L1075.751,38.9352727 L1080.38118,24.3415455 L1080.38118,24.3415455 Z M1080.55273,33.3113636 L1083.38555,33.3113636 L1081.97455,28.2762727 L1080.55273,33.3113636 L1080.55273,33.3113636 Z M1089.77445,38.9352727 L1089.77445,24.3415455 L1095.386,24.3415455 C1096.85418,24.3415455 1097.99009,24.663 1098.79527,25.3043636 C1099.71636,26.0384545 1100.17536,27.0754545 1100.17536,28.4153636 C1100.17536,29.5203636 1099.85082,30.4507273 1099.20327,31.2049091 C1098.91736,31.5340909 1098.54182,31.8122727 1098.07973,32.0379091 C1098.67164,32.2249091 1099.13064,32.5973636 1099.45827,33.1521818 C1099.67309,33.4937273 1099.82764,34.0006364 1099.91882,34.6698182 C1099.96055,34.9047273 1100.02545,35.6357273 1100.11045,36.8612727 C1100.16918,37.6247273 1100.24645,38.1378182 1100.34536,38.4005455 C1100.40409,38.5427273 1100.49218,38.722 1100.61273,38.9352727 L1097.38427,38.9352727 C1097.28536,38.7003636 1097.21427,38.4221818 1097.17255,38.1022727 C1097.14936,37.923 1097.09991,37.2970909 1097.02109,36.2183636 C1096.94227,35.2076364 1096.814,34.5338182 1096.63627,34.2 C1096.423,33.7286364 1096.09536,33.4303636 1095.65182,33.3020909 C1095.43236,33.2371818 1095.114,33.2031818 1094.70136,33.2031818 L1092.90555,33.2031818 L1092.90555,38.9352727 L1089.77445,38.9352727 L1089.77445,38.9352727 Z M1092.90555,30.8432727 L1094.62564,30.8432727 C1095.57455,30.8432727 1096.22673,30.6439091 1096.58218,30.2420909 C1096.88973,29.8959091 1097.04273,29.4090909 1097.04273,28.7893636 C1097.04273,28.0413636 1096.78773,27.4927273 1096.27464,27.1434545 C1095.96555,26.9363636 1095.44009,26.8328182 1094.69055,26.8328182 L1092.90555,26.8328182 L1092.90555,30.8432727 L1092.90555,30.8432727 Z M1102.92627,24.3415455 L1106.05736,24.3415455 L1106.05736,38.9352727 L1102.92627,38.9352727 L1102.92627,24.3415455 Z M1108.90873,38.9352727 L1108.90873,24.3415455 L1112.07227,24.3415455 L1116.64836,33.7286364 L1116.64836,24.3415455 L1119.65273,24.3415455 L1119.65273,38.9352727 L1116.52009,38.9352727 L1111.91155,29.5605455 L1111.91155,38.9352727 L1108.90873,38.9352727 L1108.90873,38.9352727 Z M1133.721,38.9352727 L1131.42445,38.9352727 L1131.42445,37.2893636 C1131.02418,37.8024545 1130.67491,38.1810909 1130.37509,38.4221818 C1129.66264,38.9986364 1128.808,39.2891818 1127.80964,39.2891818 C1125.97827,39.2891818 1124.53173,38.552 1123.47,37.0760909 C1122.44227,35.6480909 1121.92918,33.8646364 1121.92918,31.718 C1121.92918,29.5667273 1122.46855,27.7693636 1123.54418,26.3305455 C1124.69864,24.7758182 1126.23327,24 1128.15273,24 C1129.78318,24 1131.12773,24.6058182 1132.18327,25.8174545 C1132.85864,26.6025455 1133.28673,27.4788182 1133.466,28.4462727 C1133.49536,28.6054545 1133.52627,28.8434545 1133.56336,29.1649091 L1130.51573,29.1649091 C1130.40909,28.5652727 1130.236,28.0877273 1130.00264,27.7307273 C1129.55291,27.026 1128.92236,26.6736364 1128.10945,26.6736364 C1127.12655,26.6736364 1126.36927,27.1388182 1125.84073,28.0738182 C1125.323,28.9779091 1125.06336,30.1787273 1125.06336,31.6762727 C1125.06336,33.2727273 1125.35391,34.5260909 1125.93964,35.4301818 C1126.47436,36.2492727 1127.22082,36.6588182 1128.18364,36.6588182 C1129.06764,36.6588182 1129.76,36.2832727 1130.25764,35.5368182 C1130.61464,35.0020909 1130.82482,34.2958182 1130.88973,33.4195455 L1128.27018,33.4195455 L1128.27018,31.0565455 L1133.721,31.0565455 L1133.721,38.9352727 L1133.721,38.9352727 Z M1136.28491,35.7624545 L1139.48245,35.7624545 L1139.48245,38.8981818 L1136.28491,38.8981818 L1136.28491,35.7624545 Z" id="logo_Telekom_slogan"></path>
                </g>
            </g>
        </g>
    </g>
</svg>