<?xml version="1.0" encoding="UTF-8" standalone="no"?>
<svg width="76px" height="38px" viewBox="0 0 76 38" version="1.1" xmlns="http://www.w3.org/2000/svg" xmlns:xlink="http://www.w3.org/1999/xlink" xmlns:sketch="http://www.bohemiancoding.com/sketch/ns">
    <!-- Generator: Sketch 3.3.3 (12072) - http://www.bohemiancoding.com/sketch -->
    <title>logo_Telekom</title>
    <desc>Created with Sketch.</desc>
    <defs></defs>
    <g id="Imprint" stroke="none" stroke-width="1" fill="none" fill-rule="evenodd" sketch:type="MSPage">
        <g id="Desktop" sketch:type="MSArtboardGroup" transform="translate(-150.000000, -8.000000)" fill="#E20074">
            <g id="Menü-angedockt" sketch:type="MSLayerGroup">
                <path d="M150,25.130876 L157.541088,25.130876 L157.541088,32.6719639 L150,32.6719639 L150,25.130876 Z M172.995613,25.130876 L180.536701,25.130876 L180.536701,32.6719639 L172.995613,32.6719639 L172.995613,25.130876 Z M195.618877,25.130876 L203.159965,25.130876 L203.159965,32.6719639 L195.618877,32.6719639 L195.618877,25.130876 Z M218.24214,25.130876 L225.783228,25.130876 L225.783228,32.6719639 L218.24214,32.6719639 L218.24214,25.130876 Z M180.16335,8.00077555 L150.373351,8.00077555 L150,21.1411261 L151.975857,21.4824469 C152.344203,17.610808 153.360158,14.737107 155.024723,12.8623449 C156.776369,10.900501 159.188636,9.87553762 162.28855,9.78745484 L162.28855,37.2772924 C162.28855,39.6775484 161.953235,41.2370141 161.252576,41.9556896 C160.658017,42.5692663 159.65007,42.94562 158.230736,43.0857517 C157.810341,43.1207847 157.092666,43.1378006 156.075711,43.1378006 L156.075711,45.2407772 L174.460991,45.2407772 L174.460991,43.1378006 C173.445036,43.1378006 172.72636,43.1207847 172.305965,43.0857517 C170.886631,42.94562 169.878684,42.5692663 169.284125,41.9556896 C168.582466,41.2370141 168.244148,39.6775484 168.244148,37.2772924 L168.244148,9.78745484 C171.345062,9.87553762 173.760332,10.900501 175.511979,12.8623449 C177.176543,14.737107 178.192498,17.610808 178.560844,21.4824469 L180.536701,21.1411261 L180.16335,8.00077555 L180.16335,8.00077555 Z" id="logo_Telekom" sketch:type="MSShapeGroup"></path>
            </g>
        </g>
    </g>
</svg>