<?xml version="1.0" encoding="UTF-8" standalone="no"?>
<svg width="339px" height="264px" viewBox="0 0 339 264" version="1.1" xmlns="http://www.w3.org/2000/svg" xmlns:xlink="http://www.w3.org/1999/xlink" xmlns:sketch="http://www.bohemiancoding.com/sketch/ns">
    <!-- Generator: Sketch 3.3.3 (12072) - http://www.bohemiancoding.com/sketch -->
    <title>img_Leading_telecommunications_provider</title>
    <desc>Created with Sketch.</desc>
    <defs>
        <rect id="path-1" x="0" y="0" width="360" height="278" rx="6"></rect>
        <path d="M104.889,144.403 L101.737,143.843 L101.739,136.954 L104.889,137.447 L104.889,144.403 L104.889,144.403 Z M97.37,142.793 L89.44,141.389 L89.444,134.764 L97.372,136.001 L97.37,142.793 L97.37,142.793 Z M45.754,134.598 L38.663,133.318 L38.692,122.903 L45.78,123.902 L45.754,134.598 L45.754,134.598 Z M104.89,129.622 L101.74,129.203 L101.741,122.315 L104.891,122.667 L104.89,129.622 L104.89,129.622 Z M97.375,128.361 L81.899,126.315 L81.904,119.851 L97.377,121.569 L97.375,128.361 L97.375,128.361 Z M36.873,132.995 L29.781,131.715 L29.847,111.591 L36.933,112.308 L36.873,132.995 L36.873,132.995 Z M104.891,114.841 L101.743,114.564 L101.744,107.675 L104.892,107.885 L104.891,114.841 L104.891,114.841 Z M97.379,113.929 L67.197,111.296 L67.206,105.143 L97.382,107.137 L97.379,113.929 L97.379,113.929 Z M27.992,131.392 L20.9,130.112 L21.012,100.335 L28.094,100.752 L27.992,131.392 L27.992,131.392 Z M104.892,100.06 L101.745,99.925 L101.747,93.036 L104.893,93.105 L104.892,100.06 L104.892,100.06 Z M97.384,99.497 L56.657,97.775 L56.668,91.846 L97.387,92.706 L97.384,99.497 L97.384,99.497 Z M19.11,129.789 L12.019,128.509 L12.18,91.078 L19.259,91.233 L19.11,129.789 L19.11,129.789 Z M10.433,81.753 L10.433,81.753 L10.229,128.186 L3.137,126.906 L3.357,81.879 L10.433,81.753 L10.433,81.753 Z M45.472,60.483 L45.472,60.483 L45.466,62.619 L3.827,66.236 L3.835,64.432 L45.472,60.483 L45.472,60.483 Z M72.257,77.546 C68.285,74.576 65.077,69.443 63.219,63.086 L70.991,56.667 C72.048,60.194 73.835,62.97 76.04,64.473 L72.257,77.546 L72.257,77.546 Z M6.265,48.41 L6.265,48.41 L6.211,59.955 L3.856,60.222 L3.911,48.796 L6.265,48.41 L6.265,48.41 Z M10.19,47.766 L10.19,47.766 L10.138,59.509 L7.782,59.777 L7.836,48.152 L10.19,47.766 L10.19,47.766 Z M14.116,47.123 L14.116,47.123 L14.066,59.064 L11.71,59.331 L11.761,47.509 L14.116,47.123 L14.116,47.123 Z M18.041,46.479 L18.041,46.479 L17.994,58.618 L15.637,58.886 L15.686,46.865 L18.041,46.479 L18.041,46.479 Z M21.966,45.836 L21.966,45.836 L21.92,58.173 L19.564,58.44 L19.611,46.222 L21.966,45.836 L21.966,45.836 Z M25.891,45.192 L25.891,45.192 L25.848,57.728 L23.491,57.995 L23.536,45.578 L25.891,45.192 L25.891,45.192 Z M29.817,44.549 L29.817,44.549 L29.775,57.282 L27.419,57.549 L27.462,44.935 L29.817,44.549 L29.817,44.549 Z M33.742,43.906 L33.742,43.906 L33.703,56.837 L31.346,57.104 L31.387,44.292 L33.742,43.906 L33.742,43.906 Z M37.667,43.262 L37.667,43.262 L37.629,56.391 L35.274,56.658 L35.312,43.648 L37.667,43.262 L37.667,43.262 Z M41.592,42.619 L41.592,42.619 L41.557,55.946 L39.2,56.213 L39.237,43.005 L41.592,42.619 L41.592,42.619 Z M45.517,41.975 L45.517,41.975 L45.484,55.5 L43.128,55.767 L43.162,42.361 L45.517,41.975 L45.517,41.975 Z M63.219,63.086 C62.082,59.24 61.448,54.913 61.456,50.283 C61.464,45.632 62.118,41.126 63.276,36.977 L70.931,41.791 C70.306,44.101 69.945,46.613 69.941,49.219 C69.937,51.933 70.321,54.449 70.991,56.667 L63.219,63.086 L63.219,63.086 Z M6.348,30.788 L6.348,30.788 L6.294,42.333 L3.94,42.781 L3.995,31.355 L6.348,30.788 L6.348,30.788 Z M10.27,29.842 L10.27,29.842 L10.218,41.585 L7.864,42.034 L7.917,30.41 L10.27,29.842 L10.27,29.842 Z M14.192,28.897 L14.192,28.897 L14.142,40.838 L11.788,41.286 L11.839,29.464 L14.192,28.897 L14.192,28.897 Z M18.114,27.951 L18.114,27.951 L18.067,40.09 L15.712,40.539 L15.761,28.518 L18.114,27.951 L18.114,27.951 Z M22.036,27.005 L22.036,27.005 L21.99,39.342 L19.636,39.791 L19.683,27.573 L22.036,27.005 L22.036,27.005 Z M25.958,26.06 L25.958,26.06 L25.914,38.595 L23.56,39.043 L23.605,26.627 L25.958,26.06 L25.958,26.06 Z M29.88,25.114 L29.88,25.114 L29.838,37.847 L27.485,38.296 L27.527,25.681 L29.88,25.114 L29.88,25.114 Z M33.802,24.168 L33.802,24.168 L33.763,37.099 L31.408,37.548 L31.449,24.736 L33.802,24.168 L33.802,24.168 Z M37.724,23.223 L37.724,23.223 L37.686,36.352 L35.332,36.8 L35.371,23.79 L37.724,23.223 L37.724,23.223 Z M41.646,22.277 L41.646,22.277 L41.611,35.604 L39.256,36.053 L39.292,22.845 L41.646,22.277 L41.646,22.277 Z M45.568,21.332 L45.568,21.332 L45.534,34.857 L43.181,35.305 L43.215,21.899 L45.568,21.332 L45.568,21.332 Z M70.931,41.791 L63.276,36.977 C66.301,25.985 72.779,17.229 80.275,15.485 C81.095,15.294 81.903,15.201 82.695,15.201 C88.726,15.201 93.857,20.596 96.685,29.291 L96.679,29.298 C98.176,33.964 99.034,39.51 99.032,45.57 C99.027,64.597 90.602,80.178 80.214,80.368 C80.144,80.369 80.076,80.37 80.007,80.37 C77.237,80.37 74.613,79.348 72.257,77.546 L76.04,64.473 C77.205,65.277 78.481,65.73 79.827,65.73 C79.959,65.73 80.093,65.726 80.227,65.717 C85.921,65.337 90.541,56.793 90.547,46.634 C90.549,43.511 90.112,40.636 89.344,38.182 C87.776,33.203 84.817,30.036 81.338,30.036 C80.984,30.036 80.625,30.069 80.261,30.136 C76.136,30.896 72.583,35.645 70.931,41.791 L70.931,41.791 Z M107.444,0.113 L1.311,27.736 L0.798,129.729 L107.444,150.517 L107.444,0.113 L107.444,0.113 Z" id="path-3"></path>
    </defs>
    <g id="Layout" stroke="none" stroke-width="1" fill="none" fill-rule="evenodd" sketch:type="MSPage">
        <g id="Desktop" sketch:type="MSArtboardGroup" transform="translate(-930.000000, -3763.000000)">
            <g id="Partnering-with-Deutsche-Telekom-Inflight-Services" sketch:type="MSLayerGroup" transform="translate(150.000000, 3454.000000)">
                <g id="Leading-telecommunications-provider" transform="translate(0.000000, 295.000000)">
                    <g id="img_Leading_telecommunications_provider" transform="translate(774.000000, 0.000000)">
                        <g>
                            <mask id="mask-2" sketch:name="Mask" fill="white">
                                <use xlink:href="#path-1"></use>
                            </mask>
                            <use id="Mask" sketch:type="MSShapeGroup" xlink:href="#path-1"></use>
                            <path d="M237.798,175.729 L344.444,196.517 L344.444,46.113 L238.311,73.736 L237.798,175.729" id="Fill-1" fill="#FFFFFF" sketch:type="MSShapeGroup" mask="url(#mask-2)"></path>
                            <path d="M275.692,168.903 L275.663,179.318 L282.754,180.598 L282.78,169.902 L275.692,168.903" id="Fill-2" fill="#EDA95A" sketch:type="MSShapeGroup" mask="url(#mask-2)"></path>
                            <path d="M266.847,157.591 L266.781,177.715 L273.873,178.995 L273.933,158.308 L266.847,157.591" id="Fill-3" fill="#64B9E4" sketch:type="MSShapeGroup" mask="url(#mask-2)"></path>
                            <path d="M258.012,146.335 L257.9,176.112 L264.992,177.392 L265.094,146.752 L258.012,146.335" id="Fill-4" fill="#408F9A" sketch:type="MSShapeGroup" mask="url(#mask-2)"></path>
                            <path d="M249.18,137.078 L249.019,174.509 L256.11,175.789 L256.259,137.233 L249.18,137.078" id="Fill-5" fill="#9F4C97" sketch:type="MSShapeGroup" mask="url(#mask-2)"></path>
                            <path d="M240.357,127.879 L240.137,172.906 L247.229,174.186 L247.433,127.753 L240.357,127.879" id="Fill-6" fill="#BABD5A" sketch:type="MSShapeGroup" mask="url(#mask-2)"></path>
                            <path d="M338.747,139.036 L338.745,145.925 L341.892,146.06 L341.893,139.105 L338.747,139.036" id="Fill-7" fill="#6C6C6C" sketch:type="MSShapeGroup" mask="url(#mask-2)"></path>
                            <path d="M338.744,153.675 L338.743,160.564 L341.891,160.841 L341.892,153.885 L338.744,153.675" id="Fill-8" fill="#6C6C6C" sketch:type="MSShapeGroup" mask="url(#mask-2)"></path>
                            <path d="M338.741,168.315 L338.74,175.203 L341.89,175.622 L341.891,168.667 L338.741,168.315" id="Fill-9" fill="#6C6C6C" sketch:type="MSShapeGroup" mask="url(#mask-2)"></path>
                            <path d="M338.739,182.954 L338.737,189.843 L341.889,190.403 L341.889,183.447 L338.739,182.954" id="Fill-10" fill="#6C6C6C" sketch:type="MSShapeGroup" mask="url(#mask-2)"></path>
                            <path d="M293.668,137.846 L293.657,143.775 L334.384,145.497 L334.387,138.706 L293.668,137.846" id="Fill-11" fill="#9F4C97" sketch:type="MSShapeGroup" mask="url(#mask-2)"></path>
                            <path d="M304.206,151.143 L304.197,157.296 L334.379,159.929 L334.382,153.137 L304.206,151.143" id="Fill-12" fill="#64B9E4" sketch:type="MSShapeGroup" mask="url(#mask-2)"></path>
                            <path d="M318.904,165.851 L318.899,172.315 L334.375,174.361 L334.377,167.569 L318.904,165.851" id="Fill-13" fill="#408F9A" sketch:type="MSShapeGroup" mask="url(#mask-2)"></path>
                            <path d="M326.444,180.764 L326.44,187.389 L334.37,188.793 L334.372,182.001 L326.444,180.764" id="Fill-14" fill="#EDA95A" sketch:type="MSShapeGroup" mask="url(#mask-2)"></path>
                            <path d="M240.835,110.432 L240.827,112.236 L282.466,108.619 L282.472,106.483 L240.835,110.432" id="Fill-15" fill="#6C6C6C" sketch:type="MSShapeGroup" mask="url(#mask-2)"></path>
                            <path d="M280.162,88.361 L280.128,101.767 L282.484,101.5 L282.517,87.975 L280.162,88.361" id="Fill-16" fill="#9F4C97" sketch:type="MSShapeGroup" mask="url(#mask-2)"></path>
                            <path d="M240.911,94.796 L240.856,106.222 L243.211,105.955 L243.265,94.41 L240.911,94.796" id="Fill-17" fill="#BABD5A" sketch:type="MSShapeGroup" mask="url(#mask-2)"></path>
                            <path d="M244.836,94.152 L244.782,105.777 L247.138,105.509 L247.19,93.766 L244.836,94.152" id="Fill-18" fill="#BABD5A" sketch:type="MSShapeGroup" mask="url(#mask-2)"></path>
                            <path d="M248.761,93.509 L248.71,105.331 L251.066,105.064 L251.116,93.123 L248.761,93.509" id="Fill-19" fill="#BABD5A" sketch:type="MSShapeGroup" mask="url(#mask-2)"></path>
                            <path d="M252.686,92.865 L252.637,104.886 L254.994,104.618 L255.041,92.479 L252.686,92.865" id="Fill-20" fill="#408F9A" sketch:type="MSShapeGroup" mask="url(#mask-2)"></path>
                            <path d="M256.611,92.222 L256.564,104.44 L258.92,104.173 L258.966,91.836 L256.611,92.222" id="Fill-21" fill="#408F9A" sketch:type="MSShapeGroup" mask="url(#mask-2)"></path>
                            <path d="M260.536,91.578 L260.491,103.995 L262.848,103.728 L262.891,91.192 L260.536,91.578" id="Fill-22" fill="#408F9A" sketch:type="MSShapeGroup" mask="url(#mask-2)"></path>
                            <path d="M264.462,90.935 L264.419,103.549 L266.775,103.282 L266.817,90.549 L264.462,90.935" id="Fill-23" fill="#408F9A" sketch:type="MSShapeGroup" mask="url(#mask-2)"></path>
                            <path d="M268.387,90.292 L268.346,103.104 L270.703,102.837 L270.742,89.906 L268.387,90.292" id="Fill-24" fill="#9F4C97" sketch:type="MSShapeGroup" mask="url(#mask-2)"></path>
                            <path d="M272.312,89.648 L272.274,102.658 L274.629,102.391 L274.667,89.262 L272.312,89.648" id="Fill-25" fill="#9F4C97" sketch:type="MSShapeGroup" mask="url(#mask-2)"></path>
                            <path d="M276.237,89.005 L276.2,102.213 L278.557,101.946 L278.592,88.619 L276.237,89.005" id="Fill-26" fill="#9F4C97" sketch:type="MSShapeGroup" mask="url(#mask-2)"></path>
                            <path d="M280.215,67.899 L280.181,81.305 L282.534,80.857 L282.568,67.332 L280.215,67.899" id="Fill-27" fill="#64B9E4" sketch:type="MSShapeGroup" mask="url(#mask-2)"></path>
                            <path d="M240.995,77.355 L240.94,88.781 L243.294,88.333 L243.348,76.788 L240.995,77.355" id="Fill-28" fill="#EDA95A" sketch:type="MSShapeGroup" mask="url(#mask-2)"></path>
                            <path d="M244.917,76.41 L244.864,88.034 L247.218,87.585 L247.27,75.842 L244.917,76.41" id="Fill-29" fill="#EDA95A" sketch:type="MSShapeGroup" mask="url(#mask-2)"></path>
                            <path d="M248.839,75.464 L248.788,87.286 L251.142,86.838 L251.192,74.897 L248.839,75.464" id="Fill-30" fill="#EDA95A" sketch:type="MSShapeGroup" mask="url(#mask-2)"></path>
                            <path d="M252.761,74.518 L252.712,86.539 L255.067,86.09 L255.114,73.951 L252.761,74.518" id="Fill-31" fill="#EDA95A" sketch:type="MSShapeGroup" mask="url(#mask-2)"></path>
                            <path d="M256.683,73.573 L256.636,85.791 L258.99,85.342 L259.036,73.005 L256.683,73.573" id="Fill-32" fill="#64B9E4" sketch:type="MSShapeGroup" mask="url(#mask-2)"></path>
                            <path d="M260.605,72.627 L260.56,85.043 L262.914,84.595 L262.958,72.06 L260.605,72.627" id="Fill-33" fill="#64B9E4" sketch:type="MSShapeGroup" mask="url(#mask-2)"></path>
                            <path d="M264.527,71.681 L264.485,84.296 L266.838,83.847 L266.88,71.114 L264.527,71.681" id="Fill-34" fill="#64B9E4" sketch:type="MSShapeGroup" mask="url(#mask-2)"></path>
                            <path d="M268.449,70.736 L268.408,83.548 L270.763,83.099 L270.802,70.168 L268.449,70.736" id="Fill-35" fill="#64B9E4" sketch:type="MSShapeGroup" mask="url(#mask-2)"></path>
                            <path d="M272.371,69.79 L272.332,82.8 L274.686,82.352 L274.724,69.223 L272.371,69.79" id="Fill-36" fill="#64B9E4" sketch:type="MSShapeGroup" mask="url(#mask-2)"></path>
                            <path d="M276.292,68.845 L276.256,82.053 L278.611,81.604 L278.646,68.277 L276.292,68.845" id="Fill-37" fill="#64B9E4" sketch:type="MSShapeGroup" mask="url(#mask-2)"></path>
                            <path d="M333.679,75.298 L326.344,84.182 C327.112,86.636 327.549,89.511 327.547,92.634 C327.541,102.793 322.921,111.337 317.227,111.717 C315.734,111.816 314.32,111.357 313.04,110.473 L309.257,123.546 C311.672,125.393 314.367,126.42 317.214,126.368 C327.602,126.178 336.027,110.597 336.032,91.57 C336.034,85.51 335.176,79.964 333.679,75.298" id="Fill-38" fill="#408F9A" sketch:type="MSShapeGroup" mask="url(#mask-2)"></path>
                            <path d="M307.991,102.667 L300.219,109.086 C302.077,115.443 305.285,120.576 309.257,123.546 L313.04,110.473 C310.835,108.97 309.048,106.194 307.991,102.667" id="Fill-39" fill="#64B9E4" sketch:type="MSShapeGroup" mask="url(#mask-2)"></path>
                            <path d="M306.941,95.219 C306.945,92.613 307.306,90.101 307.931,87.791 L300.276,82.977 C299.118,87.126 298.464,91.632 298.456,96.283 C298.448,100.913 299.082,105.24 300.219,109.086 L307.991,102.667 C307.321,100.449 306.937,97.933 306.941,95.219" id="Fill-40" fill="#9F4C97" sketch:type="MSShapeGroup" mask="url(#mask-2)"></path>
                            <path d="M317.275,61.485 C309.779,63.229 303.301,71.985 300.276,82.977 L307.931,87.791 C309.583,81.645 313.136,76.896 317.261,76.136 C321.2,75.411 324.616,78.697 326.344,84.182 L333.685,75.291 C330.485,65.454 324.339,59.84 317.275,61.485" id="Fill-41" fill="#EDA95A" sketch:type="MSShapeGroup" mask="url(#mask-2)"></path>
                            <g id="Group-44" mask="url(#mask-2)">
                                <g transform="translate(237.000000, 46.000000)">
                                    <mask id="mask-4" sketch:name="Clip 43" fill="white">
                                        <use xlink:href="#path-3"></use>
                                    </mask>
                                    <g id="Clip-43"></g>
                                    <path d="M0.798,0.113 L107.444,0.113 L107.444,150.516 L0.798,150.516 L0.798,0.113 Z" id="Fill-42" stroke="none" fill="#BFBFBF" fill-rule="evenodd" sketch:type="MSShapeGroup" mask="url(#mask-4)"></path>
                                </g>
                            </g>
                            <path d="M275.692,168.903 L275.663,179.318 L282.754,180.598 L282.78,169.902 L275.692,168.903" id="Fill-45" fill="#B27F43" sketch:type="MSShapeGroup" mask="url(#mask-2)"></path>
                            <path d="M266.847,157.591 L266.781,177.715 L273.873,178.995 L273.933,158.308 L266.847,157.591" id="Fill-46" fill="#4B8BAB" sketch:type="MSShapeGroup" mask="url(#mask-2)"></path>
                            <path d="M258.012,146.335 L257.9,176.112 L264.992,177.392 L265.094,146.752 L258.012,146.335" id="Fill-47" fill="#306B73" sketch:type="MSShapeGroup" mask="url(#mask-2)"></path>
                            <path d="M249.18,137.078 L249.019,174.509 L256.11,175.789 L256.259,137.233 L249.18,137.078" id="Fill-48" fill="#773971" sketch:type="MSShapeGroup" mask="url(#mask-2)"></path>
                            <path d="M247.433,127.753 L240.357,127.879 L240.137,172.906 L247.229,174.186 L247.433,127.753" id="Fill-49" fill="#8B8E43" sketch:type="MSShapeGroup" mask="url(#mask-2)"></path>
                            <path d="M338.747,139.036 L338.745,145.925 L341.892,146.06 L341.893,139.105 L338.747,139.036" id="Fill-50" fill="#515151" sketch:type="MSShapeGroup" mask="url(#mask-2)"></path>
                            <path d="M338.744,153.675 L338.743,160.564 L341.891,160.841 L341.892,153.885 L338.744,153.675" id="Fill-51" fill="#515151" sketch:type="MSShapeGroup" mask="url(#mask-2)"></path>
                            <path d="M338.741,168.315 L338.74,175.203 L341.89,175.622 L341.891,168.667 L338.741,168.315" id="Fill-52" fill="#515151" sketch:type="MSShapeGroup" mask="url(#mask-2)"></path>
                            <path d="M338.739,182.954 L338.737,189.843 L341.889,190.403 L341.889,183.447 L338.739,182.954" id="Fill-53" fill="#515151" sketch:type="MSShapeGroup" mask="url(#mask-2)"></path>
                            <path d="M293.668,137.846 L293.657,143.775 L334.384,145.497 L334.387,138.706 L293.668,137.846" id="Fill-54" fill="#773971" sketch:type="MSShapeGroup" mask="url(#mask-2)"></path>
                            <path d="M304.206,151.143 L304.197,157.296 L334.379,159.929 L334.382,153.137 L304.206,151.143" id="Fill-55" fill="#4B8BAB" sketch:type="MSShapeGroup" mask="url(#mask-2)"></path>
                            <path d="M318.904,165.851 L318.899,172.315 L334.375,174.361 L334.377,167.569 L318.904,165.851" id="Fill-56" fill="#306B73" sketch:type="MSShapeGroup" mask="url(#mask-2)"></path>
                            <path d="M326.444,180.764 L326.44,187.389 L334.37,188.793 L334.372,182.001 L326.444,180.764" id="Fill-57" fill="#B27F43" sketch:type="MSShapeGroup" mask="url(#mask-2)"></path>
                            <path d="M282.472,106.483 L240.835,110.432 L240.827,112.236 L282.466,108.619 L282.472,106.483" id="Fill-58" fill="#515151" sketch:type="MSShapeGroup" mask="url(#mask-2)"></path>
                            <path d="M282.517,87.975 L280.162,88.361 L280.128,101.767 L282.484,101.5 L282.517,87.975" id="Fill-59" fill="#773971" sketch:type="MSShapeGroup" mask="url(#mask-2)"></path>
                            <path d="M243.265,94.41 L240.911,94.796 L240.856,106.222 L243.211,105.955 L243.265,94.41" id="Fill-60" fill="#8B8E43" sketch:type="MSShapeGroup" mask="url(#mask-2)"></path>
                            <path d="M247.19,93.766 L244.836,94.152 L244.782,105.777 L247.138,105.509 L247.19,93.766" id="Fill-61" fill="#8B8E43" sketch:type="MSShapeGroup" mask="url(#mask-2)"></path>
                            <path d="M251.116,93.123 L248.761,93.509 L248.71,105.331 L251.066,105.064 L251.116,93.123" id="Fill-62" fill="#8B8E43" sketch:type="MSShapeGroup" mask="url(#mask-2)"></path>
                            <path d="M255.041,92.479 L252.686,92.865 L252.637,104.886 L254.994,104.618 L255.041,92.479" id="Fill-63" fill="#306B73" sketch:type="MSShapeGroup" mask="url(#mask-2)"></path>
                            <path d="M258.966,91.836 L256.611,92.222 L256.564,104.44 L258.92,104.173 L258.966,91.836" id="Fill-64" fill="#306B73" sketch:type="MSShapeGroup" mask="url(#mask-2)"></path>
                            <path d="M262.891,91.192 L260.536,91.578 L260.491,103.995 L262.848,103.728 L262.891,91.192" id="Fill-65" fill="#306B73" sketch:type="MSShapeGroup" mask="url(#mask-2)"></path>
                            <path d="M266.817,90.549 L264.462,90.935 L264.419,103.549 L266.775,103.282 L266.817,90.549" id="Fill-66" fill="#306B73" sketch:type="MSShapeGroup" mask="url(#mask-2)"></path>
                            <path d="M270.742,89.906 L268.387,90.292 L268.346,103.104 L270.703,102.837 L270.742,89.906" id="Fill-67" fill="#773971" sketch:type="MSShapeGroup" mask="url(#mask-2)"></path>
                            <path d="M274.667,89.262 L272.312,89.648 L272.274,102.658 L274.629,102.391 L274.667,89.262" id="Fill-68" fill="#773971" sketch:type="MSShapeGroup" mask="url(#mask-2)"></path>
                            <path d="M278.592,88.619 L276.237,89.005 L276.2,102.213 L278.557,101.946 L278.592,88.619" id="Fill-69" fill="#773971" sketch:type="MSShapeGroup" mask="url(#mask-2)"></path>
                            <path d="M282.568,67.332 L280.215,67.899 L280.181,81.305 L282.534,80.857 L282.568,67.332" id="Fill-70" fill="#4B8BAB" sketch:type="MSShapeGroup" mask="url(#mask-2)"></path>
                            <path d="M243.348,76.788 L240.995,77.355 L240.94,88.781 L243.294,88.333 L243.348,76.788" id="Fill-71" fill="#B27F43" sketch:type="MSShapeGroup" mask="url(#mask-2)"></path>
                            <path d="M247.27,75.842 L244.917,76.41 L244.864,88.034 L247.218,87.585 L247.27,75.842" id="Fill-72" fill="#B27F43" sketch:type="MSShapeGroup" mask="url(#mask-2)"></path>
                            <path d="M251.192,74.897 L248.839,75.464 L248.788,87.286 L251.142,86.838 L251.192,74.897" id="Fill-73" fill="#B27F43" sketch:type="MSShapeGroup" mask="url(#mask-2)"></path>
                            <path d="M255.114,73.951 L252.761,74.518 L252.712,86.539 L255.067,86.09 L255.114,73.951" id="Fill-74" fill="#B27F43" sketch:type="MSShapeGroup" mask="url(#mask-2)"></path>
                            <path d="M259.036,73.005 L256.683,73.573 L256.636,85.791 L258.99,85.342 L259.036,73.005" id="Fill-75" fill="#4B8BAB" sketch:type="MSShapeGroup" mask="url(#mask-2)"></path>
                            <path d="M262.958,72.06 L260.605,72.627 L260.56,85.043 L262.914,84.595 L262.958,72.06" id="Fill-76" fill="#4B8BAB" sketch:type="MSShapeGroup" mask="url(#mask-2)"></path>
                            <path d="M266.88,71.114 L264.527,71.681 L264.485,84.296 L266.838,83.847 L266.88,71.114" id="Fill-77" fill="#4B8BAB" sketch:type="MSShapeGroup" mask="url(#mask-2)"></path>
                            <path d="M270.802,70.168 L268.449,70.736 L268.408,83.548 L270.763,83.099 L270.802,70.168" id="Fill-78" fill="#4B8BAB" sketch:type="MSShapeGroup" mask="url(#mask-2)"></path>
                            <path d="M274.724,69.223 L272.371,69.79 L272.332,82.8 L274.686,82.352 L274.724,69.223" id="Fill-79" fill="#4B8BAB" sketch:type="MSShapeGroup" mask="url(#mask-2)"></path>
                            <path d="M278.646,68.277 L276.292,68.845 L276.256,82.053 L278.611,81.604 L278.646,68.277" id="Fill-80" fill="#4B8BAB" sketch:type="MSShapeGroup" mask="url(#mask-2)"></path>
                            <path d="M333.679,75.298 L326.344,84.182 C327.112,86.636 327.549,89.511 327.547,92.634 C327.541,102.793 322.921,111.337 317.227,111.717 C317.093,111.726 316.959,111.73 316.827,111.73 C315.481,111.73 314.205,111.277 313.04,110.473 L309.257,123.546 C311.613,125.348 314.237,126.37 317.007,126.37 C317.076,126.37 317.144,126.369 317.214,126.368 C327.602,126.178 336.027,110.597 336.032,91.57 C336.034,85.51 335.176,79.964 333.679,75.298" id="Fill-81" fill="#306B73" sketch:type="MSShapeGroup" mask="url(#mask-2)"></path>
                            <path d="M307.991,102.667 L300.219,109.086 C302.077,115.443 305.285,120.576 309.257,123.546 L313.04,110.473 C310.835,108.97 309.048,106.194 307.991,102.667" id="Fill-82" fill="#4B8BAB" sketch:type="MSShapeGroup" mask="url(#mask-2)"></path>
                            <path d="M300.276,82.977 C299.118,87.126 298.464,91.632 298.456,96.283 C298.448,100.913 299.082,105.24 300.219,109.086 L307.991,102.667 C307.321,100.449 306.937,97.933 306.941,95.219 C306.945,92.613 307.306,90.101 307.931,87.791 L300.276,82.977" id="Fill-83" fill="#773971" sketch:type="MSShapeGroup" mask="url(#mask-2)"></path>
                            <path d="M319.695,61.201 C318.903,61.201 318.095,61.294 317.275,61.485 C309.779,63.229 303.301,71.985 300.276,82.977 L307.931,87.791 C309.583,81.645 313.136,76.896 317.261,76.136 C317.625,76.069 317.984,76.036 318.338,76.036 C321.817,76.036 324.776,79.203 326.344,84.182 L333.679,75.298 L333.685,75.291 C330.857,66.596 325.726,61.201 319.695,61.201" id="Fill-84" fill="#B27F43" sketch:type="MSShapeGroup" mask="url(#mask-2)"></path>
                            <path d="M312.444,200.277 L200.465,178.45 L201.004,71.357 L312.444,42.353 L312.444,200.277" id="Fill-85" fill="#FFFFFF" sketch:type="MSShapeGroup" mask="url(#mask-2)"></path>
                            <path d="M265.276,174.808 L265.256,186.737 L272.702,188.081 L272.719,175.857 L265.276,174.808" id="Fill-86" fill="#EDA95A" sketch:type="MSShapeGroup" mask="url(#mask-2)"></path>
                            <path d="M274.613,163.824 L274.581,188.421 L282.028,189.765 L282.053,164.577 L274.613,163.824" id="Fill-87" fill="#64B9E4" sketch:type="MSShapeGroup" mask="url(#mask-2)"></path>
                            <path d="M283.944,151.254 L283.907,190.104 L291.353,191.448 L291.381,151.692 L283.944,151.254" id="Fill-88" fill="#408F9A" sketch:type="MSShapeGroup" mask="url(#mask-2)"></path>
                            <path d="M293.265,139.633 L293.232,191.787 L300.678,193.131 L300.698,139.796 L293.265,139.633" id="Fill-89" fill="#9F4C97" sketch:type="MSShapeGroup" mask="url(#mask-2)"></path>
                            <path d="M302.579,126.428 L302.558,193.471 L310.004,194.815 L310.009,126.295 L302.579,126.428" id="Fill-90" fill="#BABD5A" sketch:type="MSShapeGroup" mask="url(#mask-2)"></path>
                            <path d="M203.349,137.668 L203.324,142.716 L206.629,142.859 L206.653,137.74 L203.349,137.668" id="Fill-91" fill="#6C6C6C" sketch:type="MSShapeGroup" mask="url(#mask-2)"></path>
                            <path d="M203.297,148.395 L203.272,153.443 L206.578,153.734 L206.602,148.616 L203.297,148.395" id="Fill-92" fill="#6C6C6C" sketch:type="MSShapeGroup" mask="url(#mask-2)"></path>
                            <path d="M203.245,159.123 L203.22,164.17 L206.528,164.61 L206.552,159.493 L203.245,159.123" id="Fill-93" fill="#6C6C6C" sketch:type="MSShapeGroup" mask="url(#mask-2)"></path>
                            <path d="M203.193,169.85 L203.168,174.898 L206.477,175.486 L206.501,170.368 L203.193,169.85" id="Fill-94" fill="#6C6C6C" sketch:type="MSShapeGroup" mask="url(#mask-2)"></path>
                            <path d="M211.232,137.661 L211.209,142.872 L253.973,144.68 L253.986,138.564 L211.232,137.661" id="Fill-95" fill="#9F4C97" sketch:type="MSShapeGroup" mask="url(#mask-2)"></path>
                            <path d="M211.183,148.734 L211.161,153.945 L242.852,156.71 L242.868,150.828 L211.183,148.734" id="Fill-96" fill="#64B9E4" sketch:type="MSShapeGroup" mask="url(#mask-2)"></path>
                            <path d="M211.135,159.807 L211.112,165.018 L227.362,167.166 L227.381,161.611 L211.135,159.807" id="Fill-97" fill="#408F9A" sketch:type="MSShapeGroup" mask="url(#mask-2)"></path>
                            <path d="M211.087,170.881 L211.064,176.092 L219.391,177.566 L219.412,172.179 L211.087,170.881" id="Fill-98" fill="#EDA95A" sketch:type="MSShapeGroup" mask="url(#mask-2)"></path>
                            <path d="M265.88,103.986 L265.876,106.376 L309.598,102.578 L309.598,99.84 L265.88,103.986" id="Fill-99" fill="#6C6C6C" sketch:type="MSShapeGroup" mask="url(#mask-2)"></path>
                            <path d="M265.914,83.277 L265.889,98.411 L268.363,98.13 L268.386,82.871 L265.914,83.277" id="Fill-100" fill="#9F4C97" sketch:type="MSShapeGroup" mask="url(#mask-2)"></path>
                            <path d="M307.128,76.521 L307.125,93.733 L309.599,93.453 L309.6,76.115 L307.128,76.521" id="Fill-101" fill="#BABD5A" sketch:type="MSShapeGroup" mask="url(#mask-2)"></path>
                            <path d="M303.007,77.196 L303.002,94.201 L305.475,93.92 L305.479,76.791 L303.007,77.196" id="Fill-102" fill="#BABD5A" sketch:type="MSShapeGroup" mask="url(#mask-2)"></path>
                            <path d="M298.885,77.872 L298.878,94.669 L301.351,94.388 L301.357,77.466 L298.885,77.872" id="Fill-103" fill="#BABD5A" sketch:type="MSShapeGroup" mask="url(#mask-2)"></path>
                            <path d="M294.763,78.548 L294.754,95.137 L297.228,94.856 L297.237,78.142 L294.763,78.548" id="Fill-104" fill="#408F9A" sketch:type="MSShapeGroup" mask="url(#mask-2)"></path>
                            <path d="M290.642,79.223 L290.631,95.604 L293.104,95.324 L293.115,78.818 L290.642,79.223" id="Fill-105" fill="#408F9A" sketch:type="MSShapeGroup" mask="url(#mask-2)"></path>
                            <path d="M286.521,79.899 L286.507,96.072 L288.981,95.791 L288.993,79.493 L286.521,79.899" id="Fill-106" fill="#408F9A" sketch:type="MSShapeGroup" mask="url(#mask-2)"></path>
                            <path d="M282.399,80.574 L282.383,96.54 L284.857,96.259 L284.871,80.169 L282.399,80.574" id="Fill-107" fill="#408F9A" sketch:type="MSShapeGroup" mask="url(#mask-2)"></path>
                            <path d="M278.277,81.25 L278.259,97.008 L280.734,96.727 L280.751,80.845 L278.277,81.25" id="Fill-108" fill="#9F4C97" sketch:type="MSShapeGroup" mask="url(#mask-2)"></path>
                            <path d="M274.156,81.926 L274.136,97.475 L276.61,97.195 L276.629,81.52 L274.156,81.926" id="Fill-109" fill="#9F4C97" sketch:type="MSShapeGroup" mask="url(#mask-2)"></path>
                            <path d="M270.035,82.601 L270.012,97.943 L272.487,97.662 L272.508,82.196 L270.035,82.601" id="Fill-110" fill="#9F4C97" sketch:type="MSShapeGroup" mask="url(#mask-2)"></path>
                            <path d="M265.952,60.177 L265.927,75.311 L268.398,74.84 L268.422,59.582 L265.952,60.177" id="Fill-111" fill="#64B9E4" sketch:type="MSShapeGroup" mask="url(#mask-2)"></path>
                            <path d="M307.133,50.248 L307.13,67.461 L309.601,66.99 L309.602,49.653 L307.133,50.248" id="Fill-112" fill="#EDA95A" sketch:type="MSShapeGroup" mask="url(#mask-2)"></path>
                            <path d="M303.014,51.241 L303.009,68.246 L305.481,67.775 L305.485,50.645 L303.014,51.241" id="Fill-113" fill="#EDA95A" sketch:type="MSShapeGroup" mask="url(#mask-2)"></path>
                            <path d="M298.896,52.234 L298.889,69.031 L301.36,68.56 L301.366,51.638 L298.896,52.234" id="Fill-114" fill="#EDA95A" sketch:type="MSShapeGroup" mask="url(#mask-2)"></path>
                            <path d="M294.777,53.227 L294.768,69.816 L297.241,69.345 L297.249,52.631 L294.777,53.227" id="Fill-115" fill="#EDA95A" sketch:type="MSShapeGroup" mask="url(#mask-2)"></path>
                            <path d="M290.66,54.22 L290.648,70.601 L293.12,70.13 L293.13,53.624 L290.66,54.22" id="Fill-116" fill="#64B9E4" sketch:type="MSShapeGroup" mask="url(#mask-2)"></path>
                            <path d="M286.542,55.213 L286.528,71.386 L289,70.915 L289.012,54.617 L286.542,55.213" id="Fill-117" fill="#64B9E4" sketch:type="MSShapeGroup" mask="url(#mask-2)"></path>
                            <path d="M282.424,56.206 L282.408,72.171 L284.879,71.7 L284.894,55.61 L282.424,56.206" id="Fill-118" fill="#64B9E4" sketch:type="MSShapeGroup" mask="url(#mask-2)"></path>
                            <path d="M278.305,57.199 L278.287,72.956 L280.76,72.485 L280.777,56.603 L278.305,57.199" id="Fill-119" fill="#64B9E4" sketch:type="MSShapeGroup" mask="url(#mask-2)"></path>
                            <path d="M274.188,58.191 L274.167,73.741 L276.639,73.27 L276.658,57.596 L274.188,58.191" id="Fill-120" fill="#64B9E4" sketch:type="MSShapeGroup" mask="url(#mask-2)"></path>
                            <path d="M270.069,59.185 L270.046,74.526 L272.519,74.055 L272.541,58.589 L270.069,59.185" id="Fill-121" fill="#64B9E4" sketch:type="MSShapeGroup" mask="url(#mask-2)"></path>
                            <path d="M233.756,113.212 C232.408,114.176 230.921,114.767 229.353,114.872 C223.375,115.27 218.554,108.946 218.587,100.747 C218.596,98.227 219.067,95.788 219.883,93.582 L212.209,88.773 C210.62,92.815 209.698,97.27 209.678,101.865 C209.613,116.289 218.403,127.821 229.31,127.621 C232.299,127.566 235.133,126.539 237.677,124.732 L233.756,113.212" id="Fill-122" fill="#408F9A" sketch:type="MSShapeGroup" mask="url(#mask-2)"></path>
                            <path d="M239.09,105.228 C237.966,108.694 236.077,111.531 233.756,113.212 L237.677,124.732 C241.859,121.688 245.249,116.449 247.227,109.974 L239.09,105.228" id="Fill-123" fill="#64B9E4" sketch:type="MSShapeGroup" mask="url(#mask-2)"></path>
                            <path d="M247.275,84.278 L239.213,91.361 C239.86,93.335 240.23,95.589 240.223,98.034 C240.216,100.578 239.802,103.021 239.09,105.228 L247.227,109.974 C248.437,105.97 249.121,101.533 249.132,96.916 C249.143,92.279 248.475,87.993 247.275,84.278" id="Fill-124" fill="#9F4C97" sketch:type="MSShapeGroup" mask="url(#mask-2)"></path>
                            <path d="M229.499,71.159 C222.082,72.886 215.602,79.953 212.204,88.769 L219.883,93.582 C221.719,88.562 225.321,84.671 229.456,83.909 C233.788,83.111 237.502,86.192 239.213,91.361 L247.275,84.278 C244.142,74.729 237.37,69.327 229.499,71.159" id="Fill-125" fill="#EDA95A" sketch:type="MSShapeGroup" mask="url(#mask-2)"></path>
                            <path d="M78.667,118.167 C78.375,126.375 79.875,129.625 79.875,129.625 L93.625,147 L103.875,133.875 L114.625,123.625 C114.625,123.625 115.312,117.555 114,116.25 C107.729,110.011 81.25,110.75 78.667,118.167" id="Fill-126" fill="#000000" sketch:type="MSShapeGroup" mask="url(#mask-2)"></path>
                            <path d="M108.081,121.5 L83.919,121.5 C82.365,121.5 81.106,120.24 81.106,118.687 L81.106,118.563 C81.106,117.01 82.365,115.75 83.919,115.75 L108.081,115.75 C109.635,115.75 110.894,117.01 110.894,118.563 L110.894,118.687 C110.894,120.24 109.635,121.5 108.081,121.5 L108.081,121.5 Z M110.894,126.437 L110.894,126.313 C110.894,124.76 109.635,123.5 108.081,123.5 L83.919,123.5 C82.365,123.5 81.106,124.76 81.106,126.313 L81.106,126.437 C81.106,127.99 82.365,129.25 83.919,129.25 L108.081,129.25 C109.635,129.25 110.894,127.99 110.894,126.437 L110.894,126.437 Z M110.894,134.187 L110.894,134.063 C110.894,132.51 109.635,131.25 108.081,131.25 L83.919,131.25 C82.365,131.25 81.106,132.51 81.106,134.063 L81.106,134.187 C81.106,135.74 82.365,137 83.919,137 L108.081,137 C109.635,137 110.894,135.74 110.894,134.187 L110.894,134.187 Z" id="Fill-127" fill="#D0D0D0" sketch:type="MSShapeGroup" mask="url(#mask-2)"></path>
                            <path d="M123.25,80.25 C123.25,64.621 110.092,52.065 94.25,53.055 C80.738,53.899 69.724,64.856 68.814,78.363 C68.234,86.969 71.654,94.787 77.397,100.154 C79.725,102.329 81.106,105.33 81.106,108.516 L81.106,110.466 C81.106,112.142 82.464,113.5 84.14,113.5 L107.86,113.5 C109.536,113.5 110.894,112.142 110.894,110.466 L110.894,108.512 C110.894,105.374 112.199,102.378 114.502,100.248 C119.881,95.271 123.25,88.156 123.25,80.25" id="Fill-128" fill="#F6D22F" sketch:type="MSShapeGroup" mask="url(#mask-2)"></path>
                            <path d="M93.792,36.421 L93.792,16.786 C93.792,15.551 94.793,14.55 96.028,14.55 C97.263,14.55 98.264,15.551 98.264,16.786 L98.264,36.421 C98.264,37.656 97.263,38.658 96.028,38.658 C94.793,38.658 93.792,37.656 93.792,36.421 L93.792,36.421 Z M115.014,42.378 L115.014,42.378 C116.096,42.974 117.456,42.58 118.052,41.498 L127.527,24.301 C128.123,23.22 127.73,21.859 126.648,21.263 C125.566,20.667 124.206,21.061 123.61,22.143 L114.135,39.34 C113.538,40.422 113.932,41.782 115.014,42.378 L115.014,42.378 Z M129.661,55.88 L129.661,55.88 C130.406,56.865 131.808,57.06 132.794,56.316 L148.459,44.478 C149.444,43.733 149.639,42.331 148.895,41.346 C148.15,40.36 146.748,40.165 145.762,40.91 L130.097,52.747 C129.112,53.492 128.917,54.894 129.661,55.88 L129.661,55.88 Z M135.902,74.979 L135.902,74.979 C136.266,76.159 137.518,76.821 138.698,76.456 L157.461,70.669 C158.641,70.305 159.303,69.053 158.939,67.872 C158.574,66.692 157.323,66.031 156.142,66.395 L137.38,72.183 C136.2,72.547 135.538,73.799 135.902,74.979 L135.902,74.979 Z M65.408,21.263 L65.408,21.263 C64.326,21.859 63.933,23.22 64.529,24.301 L74.004,41.498 C74.6,42.58 75.96,42.974 77.042,42.378 C78.124,41.782 78.517,40.422 77.921,39.34 L68.446,22.143 C67.85,21.061 66.49,20.667 65.408,21.263 L65.408,21.263 Z M43.161,41.346 L43.161,41.346 C42.416,42.331 42.612,43.733 43.597,44.478 L59.262,56.316 C60.248,57.06 61.65,56.865 62.395,55.88 C63.139,54.894 62.944,53.492 61.959,52.747 L46.294,40.91 C45.308,40.165 43.906,40.36 43.161,41.346 L43.161,41.346 Z M33.117,67.872 L33.117,67.872 C32.753,69.053 33.415,70.305 34.595,70.669 L53.357,76.456 C54.538,76.821 55.79,76.159 56.154,74.979 C56.518,73.799 55.856,72.547 54.676,72.183 L35.914,66.395 C34.733,66.031 33.481,66.692 33.117,67.872 L33.117,67.872 Z" id="Fill-129" fill="#F6D22F" sketch:type="MSShapeGroup" mask="url(#mask-2)"></path>
                            <path d="M137.833,245.667 C137.833,245.667 138.833,254 138.667,255.667 C138.5,257.333 142.167,266.667 142.5,268 C142.833,269.333 146,272.667 146.333,273.833 C146.667,275 147.167,281.333 147.167,282 C147.167,282.667 53.5,283.5 53.5,283.5 L52.667,276.833 C52.667,276.833 58.333,250.833 58.333,249.667 C58.333,248.5 58.667,246.333 59,245.833 C59.333,245.333 61,242.833 61,242.833 L137.833,245.667" id="Fill-130" fill="#282828" sketch:type="MSShapeGroup" mask="url(#mask-2)"></path>
                            <path d="M125.333,252 C130.333,251.333 138,248 139.333,247.333 C140.667,246.667 139.333,257.333 139.333,257.333 C139.333,257.333 127.333,261 121.667,262 C116,263 100.74,264 97.667,264 C93.333,264 68,262.667 61,259.333 C54,256 52.667,248.333 57.333,249.667 C61.609,250.888 71.008,253.577 79.333,254.333 C86.667,255 92.333,254.667 97.333,255 C99.755,255.161 120.333,252.667 125.333,252" id="Fill-131" fill="#000000" sketch:type="MSShapeGroup" mask="url(#mask-2)"></path>
                            <path d="M176.5,208 L188.5,198.5 C188.5,198.5 196,192.333 198.5,196.333 C201,200.333 198.833,202.833 197.833,204.333 C196.833,205.833 193.333,212.667 192.5,214.5 C191.667,216.333 187.167,225.5 186.167,227.167 C185.167,228.833 178.333,237.833 177.333,239 C176.333,240.167 169.833,248.167 169,249 C168.167,249.833 165.833,253.667 165.167,254.5 C164.5,255.333 162.167,261.333 161.667,262.333 C161.167,263.333 157,267.667 155.333,268.5 C153.667,269.333 151.333,273 150.667,273.833 C150,274.667 147.667,279.333 147.667,279.333 L142.833,280.333 C142.833,280.333 144.667,277.333 145.333,276.333 C146,275.333 146.667,271.833 147,270.833 C147.333,269.833 146.167,269.167 145.667,269.5 C145.167,269.833 144.333,272.333 143.667,273.167 C143,274 139,278 139,278 L133.5,279.167 L137.167,274.333 C137.167,274.333 140.833,269 141.333,268.333 C141.833,267.667 141.667,266.667 141.667,266.667 C141.667,266.667 140.167,267.667 139,268.333 C137.833,269 134.5,271.667 131.167,274.167 C127.833,276.667 127.333,272 128.167,271.167 C129,270.333 131.833,267.667 133.333,266.667 C134.833,265.667 137.5,263.167 138,262.333 C138.5,261.5 138.333,260.833 138.333,260 C136.833,260 135,260.833 134,261 C133,261.167 130.833,263 128.5,264.167 C126.167,265.333 125.5,261.833 126.5,260.833 C127.5,259.833 131.167,257.5 132.333,256.667 C133.5,255.833 136.5,255.167 137.5,254.667 C138.5,254.167 142.667,251.667 143.667,251 C144.667,250.333 148,249.833 150,249 C152,248.167 154,246.333 155,245.5 C156,244.667 158,240.833 159.333,239.333 C160.667,237.833 165.167,229.833 166.333,227.833 C167.5,225.833 170.667,218.5 171.333,216.833 C172,215.167 172.333,211.833 173.333,210.5 L176.5,208 L176.5,208 Z M8.833,201.833 C8.667,203.333 11,209 11.833,210.5 C12.667,212 15.333,218.5 16.167,220.167 C17,221.833 23.333,232.167 24.5,233.333 C25.667,234.5 32,243.5 33.333,244.833 C34.667,246.167 38.667,254.5 39.167,255.5 C39.667,256.5 40.667,262.5 41.333,264 C42,265.5 44.833,268.833 45.833,270 C46.833,271.167 50.333,276.5 51,278 C51.667,279.5 53.5,279 54.5,278 C55.5,277 52.5,274.5 53.167,275.5 C53.833,276.5 55.667,278 57.333,277 C59,276 57.833,273.5 57.167,272.667 C56.5,271.833 53.667,266.833 53.667,266.833 C53.667,266.833 57.667,271 58.667,272.167 C59.667,273.333 61,273 62.167,272 C63.333,271 61.833,268 61.667,267.167 C63,266.667 62.167,264 61.5,263 C60.833,262 59,258.5 58.333,257.5 C57.667,256.5 53.167,249 52.167,248.333 C51.167,247.667 48.833,244.833 47.833,243.667 C46.833,242.5 42.333,234.833 40.667,232.333 C39,229.833 34.833,218.167 34.167,216.667 C33.5,215.167 32.5,211 32.667,210 C32.667,210 9,200.333 8.833,201.833 L8.833,201.833 Z" id="Fill-132" fill="#FFCCAA" sketch:type="MSShapeGroup" mask="url(#mask-2)"></path>
                            <path d="M78.667,118.167 C77.88,118.888 78,121 77.833,121.833 C77.667,122.667 76.083,126.583 75.75,128.25 C75.25,128.917 69.667,131.833 67.667,133 C65.667,134.167 59.333,136 57.667,137 C56,138 49.5,141.5 46.333,143.5 C43.167,145.5 38.833,150.167 37.333,151.5 C35.833,152.833 31.833,160.5 30.167,162.333 C28.5,164.167 23,173.5 21.833,175 C20.667,176.5 13.524,188.25 12.5,189.833 C10.667,192.667 8,196.667 6.667,198.667 C6.144,199.451 6.667,200.833 7,201.333 C7.333,201.833 9.667,204.167 11.333,205.333 C13,206.5 17.333,209.667 18.833,210.833 C20.333,212 29.833,213.667 30.833,214 C31.833,214.333 33,213.5 33.5,212.667 C34,211.833 37.333,208.333 38.167,207.833 C39,207.333 41.5,203.833 41.833,203 C42.167,202.167 43.833,198.333 44.667,197.333 C45.5,196.333 51.667,187.167 52.5,186.167 C53.333,185.167 55,183.5 55.5,184.167 C56,184.833 56.167,187.333 56.167,188.833 C56.167,190.333 57,197.167 57.833,198.667 C58.667,200.167 57.833,203.5 57.167,204.833 C56.5,206.167 54.833,212 54.333,213.333 C53.833,214.667 55.167,217.333 56.167,219.333 C57.167,221.333 60.333,228 60.833,229.833 C61.333,231.667 60.167,236.5 59.833,237.667 C59.5,238.833 58,242 57.667,242.667 C57.333,243.333 58.667,245 59.667,245.5 C60.667,246 65.333,247.833 67,248.333 C68.667,248.833 74.333,252.667 76.167,253.167 C78,253.667 83.667,254 83.667,254 L97.833,252.083 C97.833,252.083 102.75,252.333 103.917,252.167 C105.083,252 110,252.5 110.667,252.333 C111.333,252.167 122,249.667 123.333,249.333 C124.667,249 136.333,248.333 137,248.333 C137.667,248.333 138.667,247.667 139.333,247.333 C140,247 143,246.5 144,246.333 C145,246.167 144.833,244.333 144.833,243.5 C144.833,242.667 144.667,233.5 144.5,232.333 C144.333,231.167 143.667,224.333 143.667,222.667 C143.667,221 144,214.833 144.167,213.5 C144.333,212.167 146.5,203.5 146.833,202 C147.167,200.5 149,189.333 149.167,187.167 C150,187.833 152.833,192 153.5,192.5 C154.167,193 158,199.167 158.5,199.833 C159,200.5 162,203 163,203.333 C164,203.667 165.833,205.167 166.167,205.833 C166.5,206.5 167.5,208.833 168,209.333 C168.5,209.833 170.167,210 170.833,210.5 C171.285,210.839 172.887,212.251 173.872,213.125 C174.342,213.542 175.032,213.587 175.554,213.236 L200.424,196.5 C200.824,196.23 200.911,195.678 200.611,195.299 C195.727,189.14 160.264,144.42 159.333,143.333 C158.333,142.167 155.806,140.403 152.833,139 C138,132 120.5,126.5 118.167,125.5 C118.5,124.167 116.417,122.583 115.917,120.75 C115.61,119.624 114.75,117.583 113.75,116.75 C113.75,116.75 113.902,121.504 112.5,124.5 C110.667,128.417 109,129.083 107.5,130.25 C106,131.417 102.417,133.417 101.75,134.25 C101.083,135.083 97.833,138.167 97.667,139.833 C96.833,139.167 93.042,134.599 92,133.75 C89.75,131.917 85.667,131.167 84.167,129.667 C82.667,128.167 80.333,125.167 79.833,123.667 C79.333,122.167 78.667,118.167 78.667,118.167" id="Fill-133" fill="#282828" sketch:type="MSShapeGroup" mask="url(#mask-2)"></path>
                            <path d="M59.667,247.333 C62.333,247.667 65.167,249 66,249.167 C66.833,249.333 67.333,250.667 67.333,252.167 C67.333,253.667 67.167,258.333 67,259.333 C66.833,260.333 65.667,262 64.333,261.833 C63,261.667 59.167,261.333 57.5,260.5 C55.833,259.667 53.833,258.833 53.5,258.167 C53.167,257.5 52.833,254.833 53,253.667 C53.167,252.5 53.667,248.833 53.833,248.167 C54,247.5 55.667,246.5 56.333,246.667 C57,246.833 59.667,247.333 59.667,247.333" id="Fill-134" fill="#4B4B4B" sketch:type="MSShapeGroup" mask="url(#mask-2)"></path>
                            <path d="M104.598,264.825 L91.385,264.675 C90.987,264.67 90.667,264.346 90.667,263.948 L90.667,254.718 C90.667,254.32 90.987,253.996 91.385,253.992 L104.598,253.842 C105.003,253.837 105.333,254.164 105.333,254.568 L105.333,264.098 C105.333,264.503 105.003,264.83 104.598,264.825" id="Fill-135" fill="#D0D0D0" sketch:type="MSShapeGroup" mask="url(#mask-2)"></path>
                            <path d="M79.521,172.883 L85.529,172.883 L85.529,178.891 L79.521,178.891 L79.521,172.883 Z M61.5,172.883 L67.508,172.883 L67.508,178.891 L61.5,178.891 L61.5,172.883 Z M97.545,172.883 L103.553,172.883 L103.553,178.891 L97.545,178.891 L97.545,172.883 Z M115.568,172.883 L121.576,172.883 L121.576,178.891 L115.568,178.891 L115.568,172.883 Z M133.887,172.883 L139.895,172.883 L139.895,178.891 L133.887,178.891 L133.887,172.883 Z" id="Fill-136" fill="#EDEDED" sketch:type="MSShapeGroup" mask="url(#mask-2)"></path>
                            <path d="M115.568,169.704 L117.142,169.976 C117.435,166.892 118.245,164.602 119.571,163.109 C120.966,161.546 122.89,160.729 125.361,160.659 L125.361,182.559 C125.361,184.472 125.091,185.714 124.532,186.286 C124.059,186.775 123.256,187.075 122.125,187.187 C121.79,187.215 121.217,187.228 120.408,187.228 L120.408,188.904 L135.055,188.904 L135.055,187.228 C134.245,187.228 133.673,187.215 133.338,187.187 C132.207,187.075 131.404,186.775 130.931,186.286 C130.372,185.714 130.105,184.472 130.105,182.559 L130.105,160.659 C132.575,160.729 134.497,161.546 135.892,163.109 C137.218,164.602 138.028,166.892 138.321,169.976 L139.895,169.704 L139.598,159.236 L115.865,159.236 L115.568,169.704" id="Fill-137" fill="#E20074" sketch:type="MSShapeGroup" mask="url(#mask-2)"></path>
                            <path d="M97.914,144.714 C97.507,144.716 97.056,144.703 96.856,144.668 C96.436,144.594 96.51,144.322 96.485,144.124 C96.461,143.926 96.411,143.382 96.362,143.135 C96.312,142.887 95.991,142.541 95.892,142.417 C95.793,142.294 95.768,142.145 95.768,142.022 C95.768,141.898 95.867,141.255 95.941,141.057 C96.015,140.859 96.164,140.538 96.386,140.414 C96.609,140.29 97.247,139.944 97.914,139.944 C98.582,139.944 99.22,140.29 99.442,140.414 C99.665,140.538 99.813,140.859 99.887,141.057 C99.962,141.255 100.06,141.898 100.06,142.022 C100.06,142.145 100.036,142.294 99.937,142.417 C99.838,142.541 99.516,142.887 99.467,143.135 C99.417,143.382 99.368,143.926 99.343,144.124 C99.319,144.322 99.393,144.594 98.972,144.668 C98.773,144.703 98.321,144.716 97.914,144.714 L97.914,144.714 Z M97.914,150.207 C95.51,150.207 96.024,147.635 96.024,147.635 C96.148,147.141 96.573,144.234 96.741,143.926 C97.038,143.382 97.914,143.431 97.914,143.431 C97.914,143.431 98.79,143.382 99.087,143.926 C99.256,144.234 99.681,147.141 99.804,147.635 C99.804,147.635 100.319,150.207 97.914,150.207 L97.914,150.207 Z M97.914,146.028 C98.483,146.028 98.914,145.607 98.988,145.385 C99.062,145.162 98.939,144.841 98.964,144.668 C98.988,144.495 98.939,144.198 98.716,143.951 C98.494,143.703 97.914,143.753 97.914,143.753 C97.914,143.753 97.335,143.703 97.112,143.951 C96.89,144.198 96.84,144.495 96.865,144.668 C96.89,144.841 96.766,145.162 96.84,145.385 C96.915,145.607 97.346,146.028 97.914,146.028 L97.914,146.028 Z M97.914,149.812 C98.632,149.812 99.384,149.367 99.384,148.6 C99.384,147.833 98.458,147.561 97.914,147.561 C97.37,147.561 96.445,147.833 96.445,148.6 C96.445,149.367 97.197,149.812 97.914,149.812 L97.914,149.812 Z M98.384,143.81 L98.384,140.815 C98.384,140.56 98.177,140.353 97.922,140.353 L97.906,140.353 C97.651,140.353 97.444,140.56 97.444,140.815 L97.444,143.81 C97.444,144.065 97.651,144.272 97.906,144.272 L97.922,144.272 C98.177,144.272 98.384,144.065 98.384,143.81 L98.384,143.81 Z" id="Fill-138" fill="#D0D0D0" sketch:type="MSShapeGroup" mask="url(#mask-2)"></path>
                        </g>
                    </g>
                </g>
            </g>
        </g>
    </g>
</svg>