<?xml version="1.0" encoding="UTF-8" standalone="no"?>
<svg width="343px" height="257px" viewBox="0 0 343 257" version="1.1" xmlns="http://www.w3.org/2000/svg" xmlns:xlink="http://www.w3.org/1999/xlink" xmlns:sketch="http://www.bohemiancoding.com/sketch/ns">
    <!-- Generator: Sketch 3.3.3 (12072) - http://www.bohemiancoding.com/sketch -->
    <title>img_Benefit_from_our_legal_expertise</title>
    <desc>Created with Sketch.</desc>
    <defs>
        <rect id="path-1" x="0" y="0" width="360" height="278" rx="6"></rect>
    </defs>
    <g id="Layout" stroke="none" stroke-width="1" fill="none" fill-rule="evenodd" sketch:type="MSPage">
        <g id="Desktop" sketch:type="MSArtboardGroup" transform="translate(-165.000000, -4108.000000)">
            <g id="Partnering-with-Deutsche-Telekom-Inflight-Services" sketch:type="MSLayerGroup" transform="translate(150.000000, 3454.000000)">
                <g id="Benefit-from-our-legal-expertise" transform="translate(0.000000, 633.000000)">
                    <g id="img_Benefit_from_our_legal_expertise" transform="translate(4.000000, 0.000000)">
                        <g>
                            <mask id="mask-2" sketch:name="Mask" fill="white">
                                <use xlink:href="#path-1"></use>
                            </mask>
                            <use id="Mask" sketch:type="MSShapeGroup" xlink:href="#path-1"></use>
                            <path d="M14.794,25.261 L250.605,25.261 L250.605,188.12 L14.794,188.12 L14.794,25.261 Z" id="Fill-1" fill="#FFFFFF" sketch:type="MSShapeGroup" mask="url(#mask-2)"></path>
                            <path d="M11.88,188.432 L253.52,188.432 L253.52,192.488 L11.88,192.488 L11.88,188.432 Z" id="Fill-2" fill="#D0D0D0" sketch:type="MSShapeGroup" mask="url(#mask-2)"></path>
                            <path d="M11.88,21.206 L253.52,21.206 L253.52,25.262 L11.88,25.262 L11.88,21.206 Z" id="Fill-3" fill="#D0D0D0" sketch:type="MSShapeGroup" mask="url(#mask-2)"></path>
                            <path d="M147.593,79.305 L138.926,79.305 C138.61,74 136.336,71.348 132.106,71.348 C130.432,71.348 129.027,71.838 127.89,72.816 C126.532,73.985 125.854,75.627 125.854,77.742 C125.854,79.447 126.327,80.9 127.274,82.1 C128.222,83.268 130.321,84.878 133.574,86.931 C139.731,90.878 143.82,93.704 145.841,95.409 C149.693,98.693 151.619,102.64 151.619,107.249 C151.619,111.481 150.324,115.049 147.735,117.954 C146.662,119.185 145.288,120.227 143.615,121.08 C144.657,122.185 145.415,123.116 145.888,123.874 C147.214,125.99 147.877,128.532 147.877,131.499 C147.877,136.046 146.283,139.835 143.094,142.867 C140.283,145.519 136.605,146.845 132.058,146.845 C127.322,146.845 123.501,145.487 120.596,142.772 C117.407,139.804 115.749,135.557 115.623,130.031 L124.385,130.031 C124.922,135.683 127.511,138.509 132.153,138.509 C134.426,138.509 136.163,137.72 137.363,136.141 C138.278,134.91 138.736,133.457 138.736,131.784 C138.736,130.299 138.31,128.894 137.458,127.568 C136.289,125.769 131.742,122.358 123.817,117.338 C119.744,114.749 116.902,112.444 115.292,110.423 C113.113,107.739 112.023,104.36 112.023,100.287 C112.023,95.93 113.444,92.409 116.286,89.725 C117.423,88.652 118.717,87.862 120.17,87.357 C117.897,84.515 116.76,81.421 116.76,78.074 C116.76,74.19 117.928,70.906 120.265,68.222 C123.201,64.875 127.195,63.202 132.248,63.202 C136.005,63.202 139.21,64.244 141.862,66.328 C143.788,67.812 145.209,69.769 146.125,72.201 C147.072,74.758 147.562,77.206 147.593,79.542 L147.593,79.305 L147.593,79.305 Z M124.859,92.33 C123.943,92.741 123.059,93.404 122.207,94.319 C120.975,95.677 120.359,97.398 120.359,99.482 C120.359,101.85 121.48,103.981 123.722,105.876 C125.301,107.202 128.269,109.302 132.626,112.175 C134.237,113.217 135.294,113.944 135.8,114.354 C137.157,115.365 138.089,116.012 138.594,116.296 C139.636,115.854 140.583,115.017 141.436,113.786 C142.541,112.207 143.094,110.534 143.094,108.765 C143.094,106.366 141.988,104.266 139.778,102.466 C137.631,100.729 133.7,98.061 127.985,94.461 L125.569,92.804 L124.859,92.33 L124.859,92.33 Z" id="Fill-4" fill="#E20074" sketch:type="MSShapeGroup" mask="url(#mask-2)"></path>
                            <path d="M52.489,103.43 L51.047,103.43 L51.038,99.684 L51.031,99.605 C51.02,99.351 51.009,99.27 50.981,99.079 L50.96,98.953 C50.542,96.097 48.613,93.638 45.934,92.538 C44.939,92.129 43.886,91.923 42.802,91.923 C39.598,91.923 36.66,93.806 35.317,96.721 C34.814,97.803 34.562,98.963 34.562,100.167 L34.562,103.43 L33.244,103.43 C32.467,103.43 31.839,104.061 31.839,104.834 L31.839,119.657 C31.839,120.433 32.467,121.062 33.244,121.062 L52.489,121.062 C53.261,121.062 53.895,120.433 53.895,119.657 L53.895,104.834 C53.895,104.061 53.261,103.43 52.489,103.43 L52.489,103.43 Z M37.602,100.167 C37.602,99.65 37.679,99.139 37.827,98.648 C38.184,97.481 38.945,96.468 39.974,95.802 C40.818,95.254 41.794,94.966 42.802,94.966 C43.816,94.966 44.796,95.254 45.639,95.804 C46.665,96.472 47.425,97.481 47.783,98.648 C47.821,98.772 47.856,98.9 47.882,99.03 C47.945,99.309 47.969,99.484 47.991,99.766 L47.994,103.43 L37.602,103.43 L37.602,100.167 L37.602,100.167 Z" id="Fill-5" fill="#A4A4A4" sketch:type="MSShapeGroup" mask="url(#mask-2)"></path>
                            <path d="M42.77,41.527 L28.008,50.754 L57.533,50.754 L42.77,41.527 L42.77,41.527 Z M50.241,52.407 L51.073,54.072 L51.073,64.062 L54.403,64.062 L54.403,54.072 L55.236,52.407 L50.241,52.407 L50.241,52.407 Z M43.581,52.407 L44.414,54.072 L44.414,64.062 L47.743,64.062 L47.743,54.072 L48.576,52.407 L43.581,52.407 L43.581,52.407 Z M36.921,52.407 L37.754,54.072 L37.754,64.062 L41.084,64.062 L41.084,54.072 L41.916,52.407 L36.921,52.407 L36.921,52.407 Z M30.262,52.407 L31.094,54.072 L31.094,64.062 L34.424,64.062 L34.424,54.072 L35.257,52.407 L30.262,52.407 L30.262,52.407 Z M30.262,65.727 L29.429,69.057 L56.068,69.057 L55.236,65.727 L30.262,65.727 L30.262,65.727 Z" id="Fill-6" fill="#A4A4A4" sketch:type="MSShapeGroup" mask="url(#mask-2)"></path>
                            <path d="M26,142 L83,142 L83,147.473 L26,147.473 L26,142 Z M26,159.33 L72.674,159.33 L72.674,153.857 L26,153.857 L26,159.33 Z M26,171.187 L68.355,171.187 L68.355,165.715 L26,165.715 L26,171.187 Z" id="Fill-7" fill="#A4A4A4" sketch:type="MSShapeGroup" mask="url(#mask-2)"></path>
                            <path d="M272.889,103.5 L272.106,96.077 C269.343,93.574 269.662,91.101 268.76,88.625 C263.053,88.805 264.132,81.385 262.56,78.001 C261.95,75.997 263.433,73.984 265.906,75.065 L266.168,75.616 L266.168,61.004 L277.287,50.617 L290.446,52.211 L299.499,63.127 L298.447,75.616 C300.139,75.184 303.075,74.364 302.462,77.188 C301.972,80.534 302.052,83.448 301.301,86.913 C300.251,88.165 299.087,89.386 297.687,87.844 L295.625,92.613 L296.905,104.579 C288.904,113.775 280.899,123.321 272.889,103.5" id="Fill-8" fill="#FFCCAA" sketch:type="MSShapeGroup" mask="url(#mask-2)"></path>
                            <path d="M192.789,154.556 C190.634,151.181 188.771,148.707 187.115,146.844 C181.148,144.339 179.053,141.836 175.238,139.333 C170.583,137.35 167.847,135.056 166.096,132.583 C161.15,128.886 160.366,127.365 159.173,125.623 C157.394,123.498 159.724,121.755 161.729,123.559 L163.363,125.243 C164.153,124.721 165.455,124.081 166.477,126.466 L168.661,128.067 C168.169,125.712 169.419,125.482 171.603,126.383 C174.568,129.087 177.802,131.182 180.358,135.026 C181.641,134.154 183.04,134.065 184.553,134.445 C184.173,133.163 183.533,131.763 183.822,130.69 C182.489,129.638 182.25,128.565 181.818,127.486 C181.059,123.321 184.031,124.341 185.484,125.623 C186.418,126.935 187.577,128.185 187.84,129.758 C188.98,131.121 190.171,132.523 189.85,133.886 C191.654,135.138 194.708,135.459 194.97,137.821 C195.118,139.652 197.273,142.387 199.165,144.221 L192.789,154.556" id="Fill-9" fill="#FFCCAA" sketch:type="MSShapeGroup" mask="url(#mask-2)"></path>
                            <path d="M264.768,112.844 C275.861,110.109 291.546,112.09 304.967,111.712 L303.865,215.829 L259.267,216.173 L264.768,112.844" id="Fill-10" fill="#FFFFFF" sketch:type="MSShapeGroup" mask="url(#mask-2)"></path>
                            <path d="M189.852,155.308 L197.885,163.959 L205.217,150.04 L197.532,141.397 C196.022,146.844 195.118,152.752 189.852,155.308" id="Fill-11" fill="#FFFFFF" sketch:type="MSShapeGroup" mask="url(#mask-2)"></path>
                            <path d="M296.734,100.444 L300.572,105.13 C300.54,111.71 299.29,116.979 298.388,122.628 C292.077,118.051 289.542,114.766 285.958,111.159 C290.535,108.596 294.111,105.012 296.734,100.444 L296.734,100.444 Z M272.427,101.375 L270.974,106.442 C270.796,111.71 270.914,116.979 271.696,122.247 C274.491,116.509 277.114,114.244 280.371,110.951 C277.255,108.075 273.358,104.26 272.427,101.375 L272.427,101.375 Z" id="Fill-12" fill="#FFFFFF" sketch:type="MSShapeGroup" mask="url(#mask-2)"></path>
                            <path d="M266.69,78.671 C267.622,78.09 268.672,77.568 268.612,76.666 C268.583,73.232 268.091,71.16 267.71,68.686 C267.651,61.877 270.384,60.043 272.627,57.279 C277.226,57.919 279.729,56.436 282.703,55.415 C285.671,56.987 288.64,58.419 291.605,58.59 C293.329,60.103 294.81,59.813 297.165,65.892 C298.217,69.969 297.076,75.184 296.905,79.864 C297.226,80.333 297.687,80.392 298.329,79.982 C297.665,76.406 298.217,75.937 298.857,75.357 C299.611,75.154 299.729,74.835 301.412,75.207 C303.193,70.839 302.374,69.066 302.203,66.302 C301.415,61.556 299.609,58.911 297.807,56.205 C294.603,50.325 291.809,50.528 288.902,49.305 C284.215,48.173 279.528,47.064 275.861,49.045 C265.207,51.92 268.291,54.805 265.647,57.659 C262.563,60.594 263.374,63.507 263.955,66.451 C262.563,70.117 264.103,71.95 264.215,74.685 C266.98,74.886 266.95,76.698 266.69,78.671" id="Fill-13" fill="#502D16" sketch:type="MSShapeGroup" mask="url(#mask-2)"></path>
                            <path d="M211.042,177.492 C214.299,180.956 221.781,189.16 226.757,189.131 C229.812,189.641 240.516,182.128 246.392,170.411 C246.551,172.269 246.71,174.127 246.869,175.98 C245.921,184.86 244.509,193.74 242.82,202.626 L242.123,202.349 C240.9,206.075 239.916,209.278 239.565,213.005 C239.879,213.118 240.255,213.233 240.659,213.346 C239.95,216.674 239.218,220.003 238.456,223.333 C236.743,232.274 235.051,240.888 233.339,250.754 L242.852,255.261 C242.91,255.288 242.964,255.309 243.022,255.335 C241.69,264.61 240.893,274.206 241.258,284.5 L281.124,284.5 C281.271,282.726 281.375,280.948 281.42,279.165 C281.699,280.943 281.964,282.721 282.222,284.5 L321.488,284.5 C321.55,277.863 321.427,270.979 321.253,264.03 C324.338,264.158 327.737,263.509 330.272,265.039 L332.627,245.598 C340.719,233.78 348.58,212.477 353.029,206.188 C351.837,179.178 349.161,153.798 343.602,125.796 C337.656,122.612 332.891,120.08 329.036,118.571 C329.046,118.544 329.055,118.519 329.065,118.492 L312.593,112.447 L299.468,104.199 C303.511,129.581 297.498,151.151 295.473,174.732 L295.452,174.846 C295.453,174.874 295.454,174.901 295.456,174.929 C295.445,175.056 295.433,175.182 295.422,175.308 C295.438,175.267 295.452,175.226 295.468,175.184 C296,185.904 296.167,196.488 296.682,207.19 L266.816,207.683 C268.373,196.758 269.647,185.738 269.83,174.35 C269.842,174.389 269.854,174.427 269.865,174.466 C270.042,151.561 267.191,128.618 271.696,105.713 C265.556,107.724 261.599,110.398 257.466,112.464 L257.723,112.774 C253.053,114.216 247.531,115.92 241.805,118.468 L241.779,118.259 C240.729,122.157 237.755,124.951 238.456,129.758 C234.061,136.889 234.88,141.367 234.059,146.665 C230.573,146.665 225.625,159.914 226.028,162.067 C223.523,160.554 221.02,161.539 221.288,162.067 C215.752,154.989 209.09,150.332 202.659,145.153 C198.988,159.443 195.35,158.603 191.684,162.821 C193.929,167.709 202.071,172.604 211.042,177.492 L211.042,177.492 Z M331.053,175.19 C329.891,187.358 329.482,199.168 329.743,210.643 C328.521,212.939 327.56,213.898 326.077,213.55 C325.961,213.162 325.859,212.77 325.752,212.38 C325.777,210.373 325.17,208.366 324.556,206.336 L324.449,206.348 C322.993,196.813 324.38,186.609 331.053,175.19 L331.053,175.19 Z M321.17,258.069 C321.146,258.152 321.128,258.239 321.104,258.322 C321.102,258.252 321.101,258.182 321.099,258.112 L321.17,258.069 L321.17,258.069 Z" id="Fill-15" fill="#353434" sketch:type="MSShapeGroup" mask="url(#mask-2)"></path>
                            <path d="M270.625,205.284 C272.019,207.967 273.037,210.732 280.108,212.418 C284.445,209.541 285.467,205.785 285.958,201.909 C285.93,186.925 287.27,169.109 288.142,152.313 C287.36,142.066 289.775,128.648 284.625,119.303 C288.321,117.358 286.98,114.884 288,112.932 C285.609,110.778 284.274,109.528 280.489,111.712 C280.312,113.983 279.528,117.121 281.241,118.902 C278.798,132.052 276.123,144.02 276.442,159.066 C274.29,174.055 271.026,186.716 270.625,205.284" id="Fill-14" fill="#CE006B" sketch:type="MSShapeGroup" mask="url(#mask-2)"></path>
                        </g>
                    </g>
                </g>
            </g>
        </g>
    </g>
</svg>