<?xml version="1.0" encoding="UTF-8" standalone="no"?>
<svg width="360px" height="167px" viewBox="0 0 360 167" version="1.1" xmlns="http://www.w3.org/2000/svg" xmlns:xlink="http://www.w3.org/1999/xlink" xmlns:sketch="http://www.bohemiancoding.com/sketch/ns">
    <!-- Generator: Sketch 3.3.3 (12072) - http://www.bohemiancoding.com/sketch -->
    <title>img_Large_roaming_network</title>
    <desc>Created with Sketch.</desc>
    <defs>
        <rect id="path-1" x="0" y="0" width="360" height="167" rx="6"></rect>
    </defs>
    <g id="Layout" stroke="none" stroke-width="1" fill="none" fill-rule="evenodd" sketch:type="MSPage">
        <g id="Desktop" sketch:type="MSArtboardGroup" transform="translate(-539.000000, -2798.000000)">
            <g id="Airline-Benefits" sketch:type="MSLayerGroup" transform="translate(0.000000, 1277.000000)">
                <g id="Create-values-with-ease" transform="translate(150.000000, 1374.000000)">
                    <g id="Largest-roaming-network" transform="translate(389.000000, 147.000000)">
                        <g id="img_Large_roaming_network">
                            <g>
                                <mask id="mask-2" sketch:name="Mask" fill="white">
                                    <use xlink:href="#path-1"></use>
                                </mask>
                                <use id="Mask" sketch:type="MSShapeGroup" xlink:href="#path-1"></use>
                                <path d="M-3.458,8.041 L362.528,8.041 L362.528,153.33 L-3.458,153.33 L-3.458,8.041 Z" id="Fill-1" fill="#ABD9FF" sketch:type="MSShapeGroup" mask="url(#mask-2)"></path>
                                <path d="M-3.458,124.848 L-8.341,124.848 L-8.341,129.257 L-15.463,129.257 L-15.463,132.337 L-3.458,132.337 L-3.458,124.848 M370.217,124.33 L362.528,124.33 L362.528,132.337 L377.548,132.337 L377.548,126.516 L370.217,126.516 L370.217,124.33" id="Fill-2" fill="#B8D3E5" sketch:type="MSShapeGroup" mask="url(#mask-2)"></path>
                                <path d="M215.395,80.662 L207.105,80.662 L207.105,94.819 L205.337,94.819 L205.337,110.262 L203.246,110.262 L203.246,96.293 L197.707,96.293 L197.707,88.705 L191.277,88.705 L191.277,84.857 L184.707,84.857 L177.724,88.705 L177.724,109.924 L174.546,109.924 L174.546,112.62 L168.026,112.62 L168.026,103.997 L160.094,102.174 L160.094,97.88 L157.896,90.234 L156.431,90.234 L154.317,97.88 L154.317,101.441 L152.793,101.441 L152.793,109.295 L148.051,112.62 L144.173,112.62 L144.173,115.756 L140.195,115.756 L140.195,113.095 L129.481,113.095 L129.481,115.756 L127.418,115.756 L127.418,110.453 L125.534,110.453 L125.534,112.967 L124.276,112.967 L124.276,107.872 L118.752,107.872 L118.752,110.612 L114.874,110.612 L114.874,112.967 L113.227,112.967 L113.227,114.778 L110.66,114.778 L110.66,112.264 L105.867,112.264 L105.867,114.778 L102.91,114.778 L102.91,109.514 L96.568,109.514 L96.568,112.433 L94.634,112.433 L94.634,114.797 L92.437,114.797 L92.437,109.514 L82.273,109.514 L82.273,111.948 L76.916,111.948 L76.916,114.174 L70.443,114.174 L70.443,106.378 L60.726,106.378 L60.726,114.174 L59.341,114.174 L59.341,111.72 L50.269,111.72 L50.269,114.174 L48.658,114.174 L48.658,111.957 L36.122,111.957 L36.122,119.259 L31.273,119.259 L31.273,117.31 L22.266,117.31 L22.266,112.077 L17.702,112.077 L17.702,115.985 L11.792,115.985 L11.792,104.425 L2.787,104.425 L0.666,111.495 L0.666,124.848 L-3.458,124.848 L-3.458,132.337 L362.528,132.337 L362.528,124.33 L358.251,124.33 L358.251,99.87 L341.074,99.87 L341.074,113.799 L335.837,107.977 L333.115,107.977 L333.115,100.707 L329.031,97.775 L326.202,97.775 L321.983,100.707 L321.983,105.246 L316.126,105.246 L316.126,108.303 L312.168,108.303 L312.168,95.337 L307.925,97.67 L307.925,104.999 L305.046,104.999 L305.046,97.633 L300.856,88.035 L299.181,88.035 L295.034,97.633 L295.034,103.396 L288.917,103.396 L288.917,97.633 L286.09,92.015 L283.204,97.633 L283.204,103.396 L277.816,103.396 L277.816,90.863 L266.108,91.761 L266.108,103.396 L263.572,103.396 L263.572,98.089 L252.279,99.171 L252.279,104.217 L248.352,108.976 L247.234,108.976 L247.234,96.192 L237.894,96.192 L237.894,106.126 L227.196,106.126 L227.196,108.283 L222.726,108.283 L222.726,101.2 L217.78,101.2 L217.78,107.027 L215.395,107.027 L215.395,80.662" id="Fill-3" fill="#8EC0E5" sketch:type="MSShapeGroup" mask="url(#mask-2)"></path>
                                <path d="M17.896,104.799 C18.462,104.81 19.001,105.044 19.396,105.451 C21.754,107.887 30.114,116.521 30.65,117.018 C31.274,117.598 32.948,119.233 34.217,119.266 C35.486,119.298 91.813,119.332 93.467,119.33 C95.021,119.328 98.771,119.408 100.942,119.859 C103.092,120.307 103.472,120.563 104.211,121.085 C104.602,121.361 105.309,122.241 105.805,122.551 C106.3,122.861 108.09,123.681 108.07,124.733 C108.039,126.37 101.645,128.762 95.798,128.738 C87.727,128.704 45.817,128.624 41.797,128.539 C38.288,128.465 36.056,128.131 32.862,127.403 C29.667,126.675 17.153,123.934 16.754,123.826 C16.443,123.742 15.862,123.42 15.621,123.281 L15.515,123.093 L15.526,122.484 L15.61,122.319 C15.802,122.174 16.297,121.825 16.693,121.753 C17.488,121.61 20.716,121.109 20.716,121.109 L14.538,104.736 L17.896,104.799" id="Fill-4" fill="#FFFFFF" sketch:type="MSShapeGroup" mask="url(#mask-2)"></path>
                                <path d="M59.597,58.116 C59.906,58.088 60.213,58.183 60.452,58.38 C61.881,59.564 66.947,63.756 67.268,63.995 C67.642,64.272 68.651,65.061 69.343,65.002 C70.035,64.943 100.669,61.577 101.568,61.476 C102.413,61.382 104.458,61.2 105.665,61.315 C106.861,61.429 107.084,61.545 107.517,61.785 C107.746,61.912 108.184,62.348 108.472,62.487 C108.76,62.625 109.782,62.963 109.835,63.537 C109.916,64.429 106.583,66.114 103.402,66.453 C99.01,66.919 76.214,69.395 74.022,69.59 C72.11,69.761 70.876,69.713 69.095,69.509 C67.314,69.305 60.343,68.567 60.12,68.532 C59.946,68.505 59.611,68.365 59.471,68.304 L59.402,68.208 L59.372,67.876 L59.407,67.782 C59.503,67.691 59.751,67.471 59.962,67.408 C60.386,67.283 62.111,66.816 62.111,66.816 L57.768,58.284 L59.597,58.116" id="Fill-5" fill="#FFFFFF" sketch:type="MSShapeGroup" mask="url(#mask-2)"></path>
                                <path d="M176.915,49.429 C173.393,49.429 170.43,50.93 168.963,52.216 L167.851,53.19 L166.136,53.031 C165.798,53 165.469,52.983 165.156,52.983 C163.66,52.983 162.407,53.339 161.431,54.041 C160.774,54.514 160.231,55.164 159.902,55.874 L159.426,56.898 L158.057,57.293 C156.279,57.806 155.044,58.673 154.486,59.8 C153.863,61.058 154.105,62.518 155.133,63.705 C156.164,64.896 157.948,65.635 159.789,65.635 C159.995,65.635 160.201,65.625 160.403,65.605 L161.717,65.473 L162.766,66.068 C165.196,67.448 167.754,68.146 170.369,68.146 C172.82,68.146 174.876,67.535 176.21,67.078 L177.356,66.676 L178.554,66.953 C179.282,67.132 180.003,67.185 180.696,67.185 C182.616,67.185 183.973,66.43 184.611,66.026 L185.529,65.292 L186.742,65.007 L186.904,65.007 C189.445,65.007 191.274,64.4 192.497,62.529 C193.341,61.237 193.255,60.139 192.247,58.78 C191.47,57.734 190.213,56.867 189.043,56.572 L187.498,56.182 L187.031,55.031 C186.534,53.807 185.685,52.708 184.577,51.851 C183.169,50.763 181.327,50.012 179.101,49.62 C178.38,49.493 177.645,49.429 176.915,49.429 L176.915,49.429 M46.146,30.118 C42.596,30.118 39.609,31.631 38.13,32.927 L37.009,33.909 L35.28,33.748 C34.94,33.717 34.608,33.701 34.292,33.701 C32.784,33.701 31.521,34.06 30.537,34.768 C29.875,35.244 29.328,35.9 28.996,36.615 L28.516,37.647 L27.136,38.046 C25.344,38.563 24.099,39.436 23.536,40.572 C22.908,41.841 23.151,43.313 24.188,44.51 C25.228,45.71 27.026,46.455 28.882,46.455 C29.089,46.455 29.298,46.445 29.501,46.424 L30.825,46.292 L31.883,46.892 C34.333,48.283 36.912,48.986 39.548,48.986 C42.019,48.986 44.091,48.37 45.435,47.91 L46.591,47.505 L47.799,47.783 C48.533,47.964 49.259,48.017 49.958,48.017 C51.893,48.017 53.261,47.256 53.905,46.849 L54.831,46.108 L56.053,45.82 L56.216,45.82 C58.778,45.82 60.622,45.209 61.854,43.323 C62.706,42.021 62.619,40.914 61.603,39.544 C60.82,38.49 59.552,37.616 58.372,37.318 L56.815,36.926 L56.344,35.765 C55.843,34.531 54.988,33.423 53.87,32.559 C52.451,31.462 50.594,30.706 48.35,30.311 C47.623,30.183 46.882,30.118 46.146,30.118 L46.146,30.118 M275.008,26.048 C271.819,26.049 269.136,27.407 267.808,28.572 L266.801,29.453 L265.248,29.309 C264.943,29.281 264.644,29.266 264.361,29.266 C263.007,29.266 261.872,29.589 260.989,30.225 C260.394,30.652 259.902,31.241 259.604,31.883 L259.173,32.811 L257.933,33.169 C256.324,33.633 255.206,34.418 254.7,35.438 C254.136,36.578 254.355,37.9 255.286,38.975 C256.219,40.053 257.835,40.722 259.502,40.722 C259.688,40.722 259.875,40.713 260.057,40.695 L261.247,40.576 L262.197,41.115 C264.398,42.365 266.713,42.998 269.081,42.998 C271.301,42.998 273.162,42.447 274.369,42.034 L275.407,41.675 L276.492,41.936 C277.151,42.098 277.804,42.167 278.431,42.167 C280.169,42.167 281.398,41.526 281.976,41.16 L282.808,40.58 L283.905,40.491 L284.052,40.491 C286.353,40.491 288.009,39.772 289.116,38.079 C289.881,36.908 289.803,35.745 288.89,34.515 C288.187,33.568 287.048,32.783 285.989,32.516 L284.59,32.163 L284.167,31.12 C283.717,30.012 282.949,29.017 281.945,28.241 C280.67,27.256 279.002,26.577 276.987,26.222 C276.334,26.107 275.669,26.048 275.008,26.048 L275.008,26.048" id="Fill-6" fill="#DDF0FF" sketch:type="MSShapeGroup" mask="url(#mask-2)"></path>
                                <path d="M286.961,54.701 L285.258,48.158 L331.666,48.158 L329.989,54.701 L286.961,54.701 L286.961,54.701 Z M290.813,69.211 L292.516,75.754 L324.522,75.754 L326.199,69.211 L290.813,69.211 L290.813,69.211 Z" id="Fill-7" fill="#F2F2F2" sketch:type="MSShapeGroup" mask="url(#mask-2)"></path>
                                <path d="M322.67,48.158 L320.966,45.028 L295.788,45.028 L294.112,48.158 L322.67,48.158" id="Fill-8" fill="#E6E6E6" sketch:type="MSShapeGroup" mask="url(#mask-2)"></path>
                                <path d="M315.842,45.028 L314.138,41.899 L302.616,41.899 L300.94,45.028 L315.842,45.028" id="Fill-9" fill="#CCCCCC" sketch:type="MSShapeGroup" mask="url(#mask-2)"></path>
                                <path d="M303.185,85.143 L314.707,85.143 L321.108,75.754 L296.215,75.754 L303.185,85.143" id="Fill-10" fill="#E6E6E6" sketch:type="MSShapeGroup" mask="url(#mask-2)"></path>
                                <path d="M303.185,85.143 L314.707,85.143 L314.707,155.841 L303.185,155.841 L303.185,85.143 Z" id="Fill-11" fill="#F2F2F2" sketch:type="MSShapeGroup" mask="url(#mask-2)"></path>
                                <path d="M286.961,53.563 L290.813,70.349 L326.199,70.349 L329.989,53.563 L286.961,53.563" id="Fill-12" fill="#71A7CC" sketch:type="MSShapeGroup" mask="url(#mask-2)"></path>
                                <path d="M-0.313,130.638 L360.347,130.638 L360.347,153.74 L-0.313,153.74 L-0.313,130.638 Z" id="Fill-13" fill="#F2F2F2" sketch:type="MSShapeGroup" mask="url(#mask-2)"></path>
                                <path d="M127.648,152.664 C127.917,152.043 128.535,151.607 129.255,151.607 C129.975,151.607 130.593,152.043 130.861,152.664 L127.648,152.664 L127.648,152.664 Z M214.918,152.664 C214.65,152.043 214.032,151.607 213.312,151.607 C212.592,151.607 211.974,152.043 211.705,152.664 L214.918,152.664 L214.918,152.664 Z" id="Fill-14" fill="#666666" sketch:type="MSShapeGroup" mask="url(#mask-2)"></path>
                                <path d="M128.525,143.08 L129.986,143.08 L129.986,151.843 L128.525,151.843 L128.525,143.08 Z M212.581,151.843 L214.041,151.843 L214.041,143.08 L212.581,143.08 L212.581,151.843 Z M129.206,143.08 L214.115,143.08 L214.115,144.248 L129.206,144.248 L129.206,143.08 Z M213.385,144.046 L214.44,144.046 C216.698,144.045 218.527,142.216 218.527,139.958 L218.527,133.927 L217.59,133.927 L217.59,139.958 C217.59,140.829 217.238,141.614 216.667,142.186 C216.096,142.756 215.311,143.108 214.44,143.108 L213.385,143.108 L213.385,144.046 L213.385,144.046 Z M129.547,144.046 L128.492,144.046 C126.234,144.045 124.405,142.216 124.404,139.958 L124.404,133.927 L125.342,133.927 L125.342,139.958 C125.342,140.829 125.694,141.614 126.264,142.186 C126.836,142.756 127.62,143.108 128.492,143.108 L129.547,143.108 L129.547,144.046 L129.547,144.046 Z" id="Fill-15" fill="#666666" sketch:type="MSShapeGroup" mask="url(#mask-2)"></path>
                                <path d="M126.188,137.443 C126.188,138.25 125.534,138.904 124.727,138.904 C123.921,138.904 123.266,138.25 123.266,137.443 L123.266,133.332 C123.266,132.526 123.921,131.871 124.727,131.871 C125.534,131.871 126.188,132.526 126.188,133.332 L126.188,137.443 L126.188,137.443 Z M219.373,133.332 C219.373,132.526 218.719,131.871 217.913,131.871 C217.106,131.871 216.452,132.526 216.452,133.332 L216.452,137.443 C216.452,138.25 217.106,138.904 217.913,138.904 C218.719,138.904 219.373,138.25 219.373,137.443 L219.373,133.332 L219.373,133.332 Z" id="Fill-16" fill="#666666" sketch:type="MSShapeGroup" mask="url(#mask-2)"></path>
                                <path d="M128.071,141.322 L128.071,129.905 C128.071,126.56 130.793,123.849 134.151,123.849 L141.497,123.849 C144.855,123.849 147.577,126.56 147.577,129.905 L147.577,141.322 L128.071,141.322 L128.071,141.322 Z M170,141.322 L170,129.905 C170,126.56 167.277,123.849 163.92,123.849 L156.574,123.849 C153.216,123.849 150.493,126.56 150.493,129.905 L150.493,141.322 L170,141.322 L170,141.322 Z M192.423,141.322 L192.423,129.905 C192.423,126.56 189.7,123.849 186.343,123.849 L178.997,123.849 C175.639,123.849 172.916,126.56 172.916,129.905 L172.916,141.322 L192.423,141.322 L192.423,141.322 Z M214.845,141.322 L214.845,129.905 C214.845,126.56 212.123,123.849 208.765,123.849 L201.419,123.849 C198.062,123.849 195.339,126.56 195.339,129.905 L195.339,141.322 L214.845,141.322 L214.845,141.322 Z" id="Fill-17" fill="#CCCCCC" sketch:type="MSShapeGroup" mask="url(#mask-2)"></path>
                                <path d="M147.773,141.083 L147.773,141.446 C147.773,143.249 146.753,144.71 145.495,144.71 L130.311,144.71 C129.054,144.71 128.034,143.249 128.034,141.446 L128.034,141.083 L147.773,141.083 L147.773,141.083 Z M150.434,141.083 L150.434,141.446 C150.434,143.249 151.454,144.71 152.711,144.71 L167.895,144.71 C169.153,144.71 170.172,143.249 170.172,141.446 L170.172,141.083 L150.434,141.083 L150.434,141.083 Z M172.833,141.083 L172.833,141.446 C172.833,143.249 173.853,144.71 175.11,144.71 L190.294,144.71 C191.552,144.71 192.571,143.249 192.571,141.446 L192.571,141.083 L172.833,141.083 L172.833,141.083 Z M195.233,141.083 L195.233,141.446 C195.233,143.249 196.253,144.71 197.51,144.71 L212.694,144.71 C213.952,144.71 214.971,143.249 214.971,141.446 L214.971,141.083 L195.233,141.083 L195.233,141.083 Z" id="Fill-18" fill="#999999" sketch:type="MSShapeGroup" mask="url(#mask-2)"></path>
                                <path d="M17.859,152.664 C18.128,152.043 18.746,151.607 19.466,151.607 C20.186,151.607 20.804,152.043 21.073,152.664 L17.859,152.664 L17.859,152.664 Z M105.129,152.664 C104.861,152.043 104.243,151.607 103.523,151.607 C102.803,151.607 102.185,152.043 101.916,152.664 L105.129,152.664 L105.129,152.664 Z" id="Fill-19" fill="#666666" sketch:type="MSShapeGroup" mask="url(#mask-2)"></path>
                                <path d="M18.736,143.08 L20.197,143.08 L20.197,151.843 L18.736,151.843 L18.736,143.08 Z M102.792,151.843 L104.252,151.843 L104.252,143.08 L102.792,143.08 L102.792,151.843 Z M19.417,143.08 L104.326,143.08 L104.326,144.248 L19.417,144.248 L19.417,143.08 Z M103.596,144.046 L104.651,144.046 C106.909,144.045 108.738,142.216 108.738,139.958 L108.738,133.927 L107.801,133.927 L107.801,139.958 C107.801,140.829 107.449,141.614 106.878,142.186 C106.307,142.756 105.522,143.108 104.651,143.108 L103.596,143.108 L103.596,144.046 L103.596,144.046 Z M19.758,144.046 L18.703,144.046 C16.445,144.045 14.616,142.216 14.615,139.958 L14.615,133.927 L15.553,133.927 L15.553,139.958 C15.553,140.829 15.905,141.614 16.476,142.186 C17.047,142.756 17.831,143.108 18.703,143.108 L19.758,143.108 L19.758,144.046 L19.758,144.046 Z" id="Fill-20" fill="#666666" sketch:type="MSShapeGroup" mask="url(#mask-2)"></path>
                                <path d="M16.399,137.443 C16.399,138.25 15.745,138.904 14.938,138.904 C14.132,138.904 13.477,138.25 13.477,137.443 L13.477,133.332 C13.477,132.526 14.132,131.871 14.938,131.871 C15.745,131.871 16.399,132.526 16.399,133.332 L16.399,137.443 L16.399,137.443 Z M109.584,133.332 C109.584,132.526 108.93,131.871 108.124,131.871 C107.317,131.871 106.663,132.526 106.663,133.332 L106.663,137.443 C106.663,138.25 107.317,138.904 108.124,138.904 C108.93,138.904 109.585,138.25 109.585,137.443 L109.584,133.332 L109.584,133.332 Z" id="Fill-21" fill="#666666" sketch:type="MSShapeGroup" mask="url(#mask-2)"></path>
                                <path d="M18.282,141.322 L18.282,129.905 C18.282,126.56 21.004,123.849 24.362,123.849 L31.708,123.849 C35.066,123.849 37.788,126.56 37.788,129.905 L37.788,141.322 L18.282,141.322 L18.282,141.322 Z M60.211,141.322 L60.211,129.905 C60.211,126.56 57.489,123.849 54.131,123.849 L46.785,123.849 C43.427,123.849 40.705,126.56 40.705,129.905 L40.705,141.322 L60.211,141.322 L60.211,141.322 Z M82.634,141.322 L82.634,129.905 C82.634,126.56 79.911,123.849 76.554,123.849 L69.208,123.849 C65.85,123.849 63.128,126.56 63.128,129.905 L63.128,141.322 L82.634,141.322 L82.634,141.322 Z M105.056,141.322 L105.056,129.905 C105.056,126.56 102.334,123.849 98.976,123.849 L91.63,123.849 C88.273,123.849 85.55,126.56 85.55,129.905 L85.55,141.322 L105.056,141.322 L105.056,141.322 Z" id="Fill-22" fill="#CCCCCC" sketch:type="MSShapeGroup" mask="url(#mask-2)"></path>
                                <path d="M37.984,141.083 L37.984,141.446 C37.984,143.249 36.964,144.71 35.706,144.71 L20.522,144.71 C19.265,144.71 18.245,143.249 18.245,141.446 L18.245,141.083 L37.984,141.083 L37.984,141.083 Z M40.645,141.083 L40.645,141.446 C40.645,143.249 41.665,144.71 42.922,144.71 L58.106,144.71 C59.364,144.71 60.383,143.249 60.383,141.446 L60.383,141.083 L40.645,141.083 L40.645,141.083 Z M63.044,141.083 L63.044,141.446 C63.044,143.249 64.064,144.71 65.321,144.71 L80.505,144.71 C81.763,144.71 82.782,143.249 82.782,141.446 L82.782,141.083 L63.044,141.083 L63.044,141.083 Z M85.444,141.083 L85.444,141.446 C85.444,143.249 86.464,144.71 87.721,144.71 L102.905,144.71 C104.163,144.71 105.182,143.249 105.182,141.446 L105.182,141.083 L85.444,141.083 L85.444,141.083 Z" id="Fill-23" fill="#999999" sketch:type="MSShapeGroup" mask="url(#mask-2)"></path>
                                <path d="M240.98,154.212 L227.279,154.212 L227.279,11.363 C227.279,10.456 230.346,9.72 234.129,9.72 C237.913,9.72 240.98,10.456 240.98,11.363 L240.98,154.212" id="Fill-24" fill="#E6E6E6" sketch:type="MSShapeGroup" mask="url(#mask-2)"></path>
                                <path d="M360.318,166.268 L-0.335,166.268 L-0.281,152.411 L360.373,152.411 L360.318,166.268" id="Fill-25" fill="#FFFFFF" sketch:type="MSShapeGroup" mask="url(#mask-2)"></path>
                                <path d="M-0.335,0.212 L360.373,0.212 L360.373,16.201 L-0.335,16.201 L-0.335,0.212 Z" id="Fill-26" fill="#FFFFFF" sketch:type="MSShapeGroup" mask="url(#mask-2)"></path>
                                <path d="M54.922,119.087 L56.378,117.476 L56.531,116.003 C56.625,115.251 54.483,112.381 53.446,112.381 L52.642,112.381 C50.119,112.381 49.213,114.222 49.02,116.539 C48.881,116.803 48.752,116.935 48.752,117.344 L48.752,117.478 C48.752,118.119 48.898,118.679 49.423,118.819 L49.423,119.624 L48.752,119.758 C47.686,120.007 45.927,120.592 44.879,120.982 C42.294,121.943 43.498,121.567 42.798,123.998 C42.179,126.151 40.839,129.595 40.839,132.232 C40.588,132.606 40.436,132.797 40.436,133.439 C40.436,133.859 40.941,135.004 41.107,135.316 C37.623,135.607 38.307,138.823 38.291,141.888 C38.274,145.172 38.424,148.073 38.424,151.411 L38.424,153.155 L38.12,156.505 L38.693,156.776 C38.017,157.785 35.742,158.944 35.742,160.398 C35.742,161.046 36.166,161.471 36.815,161.471 L37.217,161.471 C38.203,161.471 40.299,160.152 40.874,159.629 C41.369,159.179 41.787,158.747 42.176,158.248 C42.582,157.727 43.979,157.761 43.923,157.313 L43.77,155.84 L43.521,155.435 L43.207,151.684 L43.253,141.486 L44.724,141.651 L45.801,141.62 L49.289,141.218 L49.308,141.155 L49.305,141.154 L49.308,141.154 L49.308,141.155 C50.819,141.567 53.972,142.291 54.385,142.291 L55.19,142.291 C55.772,142.291 55.604,142.078 56.263,142.023 C55.474,143.514 54.608,145.796 53.929,147.468 C53.328,148.949 51.837,151.336 51.837,153.021 C51.549,153.566 51.166,154.607 51.166,155.435 C51.166,156.144 55.518,159.459 56.531,159.459 L57.604,159.459 C58.094,159.459 58.811,158.902 58.811,158.654 C58.811,158.047 57.903,157.333 57.428,157.087 C56.552,156.632 56.376,156.474 55.861,155.704 L56.392,155.854 C57.074,152.93 57.673,150.162 58.718,147.563 C59.125,146.551 61.762,140.694 61.762,140.145 C61.762,139.613 61.029,138.306 60.706,137.982 C60.413,137.688 60.106,137.491 59.724,137.365 L60.765,133.081 C60.859,132.693 60.622,132.379 60.234,132.379 L60.026,132.379 C59.933,132.228 59.833,132.088 59.75,131.963 L58.911,123.128 L59.088,123.097 L54.385,120.429 L54.922,119.087 L54.922,119.087 Z M51.713,141.356 L51.143,141.276 C51.363,141.282 51.55,141.311 51.713,141.356 L51.713,141.356 Z M338.766,120.97 C337.795,118.522 336.319,116.076 335.873,113.629 C337.006,113.606 338.083,113.383 338.557,111.154 C338.557,109.098 338.497,107.04 338.599,104.989 C338.659,103.92 338.274,103.359 337.549,103.182 C336.982,103.199 336.586,103.18 336.285,103.139 L336.309,103.011 C337.234,101.065 336.904,99.816 336.886,98.395 C336.742,96.542 336.365,95.093 335.447,94.578 C334.173,93.752 332.799,93.641 331.193,95.154 C329.762,97.053 329.976,98.948 329.679,100.846 L328.166,102.429 L329.141,101.883 C328.771,102.164 328.414,102.458 328.08,102.775 C327.538,102.97 326.988,103.172 326.768,103.265 C324.456,103.41 324.525,104.811 324.335,105.698 C324.191,108.326 323.987,110.82 323.619,113.002 C323.022,114.126 323.008,115.133 322.952,116.145 C322.279,118.751 321.707,121.248 321.145,123.742 L321.347,123.726 L320.937,125.167 C320.871,125.413 320.788,125.665 321.019,125.854 L320.04,125.905 L319.799,135.043 L322.529,137.063 L322.75,136.961 L323.3,136.706 L323.955,136.882 L324.131,127.392 L324.131,127.391 L322.799,126.712 C323.462,126.156 322.824,125.597 322.779,125.042 C323.274,124.891 323.317,124.383 323.365,123.878 C323.675,123.955 323.984,124.046 324.294,124.16 L324.252,121.643 C324.405,121.656 324.56,121.676 324.715,121.698 C324.735,124.308 325.066,127.107 326.095,130.326 C326.02,133.567 326.415,135.085 326.642,137.207 C326.439,142.458 327.177,149.173 327.102,152.942 L327.194,152.954 L326.927,153.468 L326.917,153.463 C326.466,153.83 326.652,154.522 326.763,155.222 C327.791,155.128 329.528,155.424 329.635,153.7 L329.661,153.694 L329.687,153.14 C330.027,153.105 330.379,153.034 330.751,152.9 L330.755,152.761 C331.146,153.032 331.417,153.34 333.269,153.193 C333.259,152.69 332.867,152.316 332.447,151.928 L332.517,151.893 C332.375,151.82 332.269,151.748 332.178,151.675 L331.952,151.443 C331.853,151.306 331.799,151.17 331.75,151.033 L331.801,151.01 C331.296,147.585 332.567,145.439 332.892,143.586 C333.496,142.351 332.386,135.41 334.526,132.508 C335.514,128.909 336.861,125.338 336.812,121.658 C337.464,121.514 338.116,121.314 338.766,120.97 L338.766,120.97 Z M146.19,154.59 C145.975,154.035 145.603,153.641 145.157,153.18 L145.143,153.237 C143.671,150.745 141.826,148.594 141.017,145.491 C140.971,144.437 140.865,143.4 140.654,142.398 C140.791,142.46 140.928,142.506 141.064,142.582 L141.087,141.361 C142.219,140.272 142.363,139.094 142.308,137.897 C142.769,137.979 143.098,137.983 143.14,137.804 C142.953,136.521 142.591,135.501 142.29,134.387 C142.972,133.725 143.441,133.113 143.883,132.512 C144.588,130.638 143.522,129.03 143.118,127.32 C143.296,125.717 142.76,124.556 142.497,123.23 C141.994,121.699 141.383,120.58 140.509,120.459 C139.88,120.404 139.262,120.394 138.631,120.432 C138.551,120.109 138.495,119.798 138.506,119.523 C139.042,119.014 139.565,117.854 138.493,115.425 C138.15,114.316 137.572,113.616 136.534,113.724 C135.856,113.123 135.185,113.344 134.508,113.593 C133.901,113.65 133.253,113.499 132.811,114.378 C131.674,115.317 131.5,116.478 131.702,117.577 L131.769,117.43 C131.794,118.153 131.773,118.875 131.848,119.598 L131.702,119.603 C131.53,119.715 131.382,119.835 131.254,119.964 L130.72,118.884 C130.649,118.785 130.561,118.706 130.363,118.738 C130.33,118.832 130.279,118.889 130.33,119.148 L130.938,120.361 C130.745,120.666 130.633,121.002 130.589,121.366 L130.585,121.409 C129.787,121.897 129.029,122.45 128.385,123.184 C127.398,124.034 127.671,124.65 127.6,125.332 C128.145,127.315 129.175,129.194 130.58,130.99 C130.942,132.253 130.26,133.678 129.399,135.125 C128.837,135.83 128.681,136.658 128.733,137.55 C129.009,137.404 129.285,137.258 129.553,137.11 C129.31,139.621 130.383,140.491 131.736,141.014 C132.873,141.252 133.147,141.569 133.673,141.86 C133.81,142.469 133.905,143.097 133.859,143.785 C133.878,145.891 133.963,147.996 134.827,150.041 C135.015,150.577 135.096,154.43 134.574,156.207 C134.393,156.949 134.291,157.695 134.194,158.44 L134.189,158.419 C134.081,159.331 133.413,160.046 133.652,161.014 C133.667,161.418 134.423,161.46 135.547,161.31 C135.89,161.258 136.35,160.864 136.721,160.595 C137.313,160.168 137.219,158.768 137.229,157.457 C137.672,155.834 137.268,155.751 137.103,155.183 C136.948,153.635 137.053,152.122 137.253,150.619 C137.539,148.89 137.722,147.155 137.759,145.422 C138.868,147.123 140.18,148.538 141.017,150.619 C141.261,151.338 141.501,152.056 141.801,152.236 L141.809,152.269 C141.636,153.323 142.275,154.439 142.773,155.492 C143.202,156.074 143.54,156.713 144.48,156.3 C145.275,155.953 145.843,155.712 146.237,155.379 C146.412,155.149 146.318,154.918 146.19,154.59 L146.19,154.59 Z M137.238,120.553 L137.296,120.52 L137.241,120.567 L137.238,120.553 L137.238,120.553 Z M131.927,120.156 C131.954,120.301 131.99,120.447 132.029,120.592 C131.906,120.656 131.785,120.724 131.662,120.79 L131.54,120.543 C131.644,120.415 131.779,120.285 131.927,120.156 L131.927,120.156 Z M131.251,120.988 L131.261,121.007 L131.237,121.02 L131.251,120.988 L131.251,120.988 Z M260.054,140.178 L257.115,135.082 C257.921,127.164 257.474,119.522 257.43,111.713 C257.327,111.228 257.226,110.744 257.117,110.258 C257.244,110.075 257.389,109.878 257.571,109.651 C257.309,109.429 257.056,109.191 256.796,108.965 C256.756,108.822 256.711,108.677 256.667,108.532 C256.827,108.129 256.975,107.722 256.914,107.254 C256.855,107.094 256.896,106.912 256.631,106.789 C256.581,106.634 256.526,106.483 256.257,106.46 C256.161,106.342 256.252,106.063 255.836,106.223 L255.693,106.059 L255.599,104.63 L254.522,104.676 L254.242,103.634 C254.41,103.413 254.578,103.263 254.746,103.092 C254.924,102.923 255.29,103.038 255.641,103.124 C256.125,103.17 256.334,103.041 256.339,102.796 C256.317,102.495 256.372,102.33 256.439,102.198 C256.585,102.011 256.521,101.824 256.403,101.631 C256.599,101.454 256.626,101.307 256.604,101.171 C256.549,101.001 256.567,100.838 256.604,100.673 C256.863,100.404 257.471,100.254 257.001,99.742 L256.471,99.145 C256.157,98.884 256.252,98.455 256.372,98.018 C256.654,97.747 256.758,97.511 256.777,97.292 L256.937,97.388 C257.019,96.703 257.105,96.018 254.947,95.329 C253.889,94.759 252.761,94.288 250.83,94.932 C249.803,95.575 248.635,96.165 248.972,97.323 C248.617,98.614 248.316,99.893 249.173,100.838 C249.622,101.432 249.611,102.077 249.381,102.747 L249.269,102.754 L249.331,102.895 C249.153,103.351 248.88,103.818 248.576,104.288 C247.416,104.858 247.079,105.616 247.517,106.543 C247.57,106.84 247.661,107.026 247.775,107.143 C247.724,107.361 247.682,107.578 247.65,107.795 C247.552,108.085 247.453,108.366 247.344,108.619 C247.221,109.394 247.124,110.145 247.054,110.867 C246.716,112.08 246.433,113.281 246.454,114.423 C245.756,114.46 245.021,114.506 244.2,114.57 C242.766,116.907 242.994,118.71 243.136,120.54 C242.072,121.708 242.497,122.502 242.807,123.328 C244.482,123.916 245.932,124.26 247.258,124.468 C247.241,125.481 247.206,126.499 247.157,127.522 C246.961,128.617 246.745,129.709 246.548,130.804 L246.494,130.832 L246.226,130.69 C246.098,130.621 245.948,130.47 245.728,130.32 C245.618,130.242 245.481,130.173 245.321,130.132 C245.162,130.092 244.976,130.087 244.788,130.132 C242.661,130.676 242.105,131.059 240.803,132.132 C240.621,132.282 240.403,132.488 240.27,132.78 C240.138,133.072 240.097,133.446 240.178,133.884 L240.215,134.072 L235.838,136.33 C234.981,137.02 233.638,137.183 234.446,139.712 L239.754,150.789 C239.918,151.176 240.091,151.478 240.27,151.719 C240.164,151.897 240.087,152.094 240.087,152.317 C240.087,152.975 240.621,153.508 241.279,153.508 C241.94,153.508 242.474,152.975 242.474,152.317 L242.463,152.261 C242.627,152.195 242.793,152.115 242.959,152.028 L243.034,152.061 C242.875,152.834 243.665,153.451 243.533,154.837 L243.734,154.837 L243.935,153.18 C244.737,152.695 245.199,153.33 245.66,153.973 C246.879,155.069 248.201,154.754 249.507,154.773 C250.308,154.524 250.654,154.302 250.735,154.109 L250.849,154.137 C250.875,154.662 250.865,155.199 250.767,155.767 L251.1,155.767 C251.153,155.256 251.095,154.717 251.25,154.232 C251.658,154.291 252.088,154.288 252.531,154.251 C252.72,154.413 252.902,154.6 253.09,154.773 C253.76,156.092 254.522,155.95 255.276,155.9 C256.298,155.658 256.795,155.525 257.397,155.366 C259.214,154.832 258.771,154.467 257.799,154.307 C256.87,154.316 256.136,154.094 255.585,153.726 L255.673,153.71 C255.888,150.842 255.991,148.031 256.055,145.24 L258.661,143.892 C260.753,142.651 260.775,141.414 260.054,140.178 L260.054,140.178 Z M240.945,133.08 C241.009,132.939 241.119,132.826 241.27,132.697 C242.561,131.634 242.889,131.383 244.976,130.853 C245.122,130.812 245.175,130.839 245.309,130.935 L245.345,130.968 L240.932,133.185 L240.945,133.08 L240.945,133.08 Z M249.98,153.47 L249.904,153.444 C249.084,153.185 248.169,152.935 247.146,152.328 C247.69,152.242 248.233,152.139 248.777,152.053 C249.128,150.81 249.367,149.68 249.554,148.601 L250.183,148.276 L249.98,153.47 L249.98,153.47 Z" id="Fill-27" fill="#E20074" sketch:type="MSShapeGroup" mask="url(#mask-2)"></path>
                                <path d="M187.034,137.754 C186.589,137.211 185.975,136.723 186.031,136.023 C185.857,132.884 186.282,129.868 186.487,126.857 L189.31,127.181 C189.797,123.732 189.904,120.463 190.048,117.18 L188.337,116.917 C188.77,115.791 189.623,114.898 188.91,113.145 C188.25,111.943 188.729,111.288 188.706,110.387 C189.319,107.021 189.787,103.706 186.9,101.672 L186.794,101.687 C186.327,101.642 185.735,101.494 185.194,101.354 L185.274,101.291 L184.439,100.617 L184.411,100.637 L183.988,99.945 L183.906,99.984 L183.805,99.544 L183.891,99.633 L184.175,99.611 C184.1,98.571 184.258,97.526 183.844,96.486 C183.798,95.626 183.362,95.037 182.684,94.605 C181.997,93.579 180.965,93.152 179.582,93.333 C178.463,93.403 177.845,93.95 177.289,94.559 C176.671,95.097 175.779,95.529 175.867,96.347 C175.933,96.708 176.113,96.922 176.554,96.801 L176.585,96.777 C176.564,97.245 176.619,97.712 176.894,98.181 C177.45,99.021 176.624,99.862 176.824,100.298 C177.005,100.488 177.177,100.693 177.53,100.553 L177.562,100.971 C177.576,101.063 177.594,101.156 177.794,101.194 C177.786,101.384 177.888,101.538 178.212,101.552 C178.152,101.908 178.477,102.456 179.131,102.285 L179.503,102.188 C179.845,102.157 180.071,102.395 180.293,102.639 C180.242,102.723 180.185,102.802 180.139,102.892 L180.171,102.946 C179.822,103.022 179.731,103.22 179.671,103.436 C179.406,103.854 179.345,104.268 179.438,104.685 C178.663,105.949 178.672,107.388 178.561,108.646 L178.801,108.303 C178.055,109.64 177.389,110.932 176.926,112.053 L174.6,111.464 L174.623,111.546 L173.913,111.334 L173.913,111.336 C173.279,110.877 172.492,110.501 172.208,110.484 C171.143,110.462 170.675,110.645 170.571,110.958 C170.409,110.71 170.281,110.716 170.157,110.755 L168.825,109.941 C168.578,109.978 168.304,110.007 168.489,110.294 C168.629,110.572 169.024,110.889 169.697,111.256 L169.749,111.229 C169.608,111.515 169.475,111.801 169.665,112.087 C169.67,112.296 169.739,112.458 170.096,112.407 C170.221,112.713 170.333,113.029 170.802,112.923 C170.969,113.549 171.137,113.387 171.304,113.465 C171.981,113.51 172.658,113.5 173.335,113.365 C173.238,113.523 173.126,113.683 172.975,113.851 L173.348,113.936 L173.295,113.93 L173.244,114.876 C174.257,115.214 175.273,115.379 176.286,115.468 C176.375,118.734 175.886,122.486 177.07,124.817 C177.046,125.137 177.024,125.458 176.992,125.77 L177.501,125.825 C177.537,129.437 178.109,133.051 178.463,136.663 C178.858,139.852 179.108,142.992 180.005,146.339 C179.656,147.225 180.311,147.625 180.609,148.201 C180.019,148.8 179.725,149.306 179.671,149.738 L179.822,149.833 C179.122,150.333 177.944,150.192 177.051,150.43 C176.234,150.579 175.881,150.796 175.821,151.066 L175.821,151.516 C177.46,152.026 179.104,151.86 180.743,151.924 C181.196,151.87 181.83,151.831 183.147,151.869 L183.018,152.236 L183.034,152.254 C182.341,152.746 181.861,153.135 181.309,153.559 C180.507,153.648 179.624,153.712 179.182,153.921 C178.101,154.33 178.436,154.734 178.426,155.142 C180.534,155.477 182.628,155.941 184.862,155.462 C186.333,155.244 187.86,155.129 189.217,154.693 L189.179,154.216 C189.29,154.218 189.394,154.222 189.509,154.223 C188.701,148.735 188.659,143.242 187.034,137.754 L187.034,137.754 Z M107.821,117.554 L106.341,117.371 C105.837,116.884 105.304,116.397 104.375,115.91 C104.06,115.658 103.744,115.591 103.428,115.613 C103.004,115.166 102.653,115.213 102.273,115.084 C102.351,114.434 101.9,114.095 101.52,113.719 C101.396,111.537 101.766,109.693 100.587,106.814 L100.266,105.347 C99.872,104.799 99.528,104.466 99.208,104.22 L99.197,104.248 C99.221,104.139 99.236,104.021 99.226,103.875 C99.37,103.923 99.515,103.596 99.659,103.374 C100.137,103.625 100.438,103.555 100.444,102.946 L100.443,101.944 C100.504,101.521 101.311,101.665 101.447,101.298 C101.438,100.908 101.81,100.264 101.923,99.645 C102.021,99.634 102.116,99.625 102.226,99.604 C102.495,98.879 102.388,98.09 101.515,97.171 C101.418,96.056 100.643,95.61 99.793,95.249 C98.707,94.604 97.75,94.863 96.854,95.551 C96.101,95.801 95.317,95.949 94.932,97.677 L94.638,100.811 C94.546,101.046 94.443,101.277 94.329,101.504 C94.039,101.548 93.737,101.546 93.631,101.689 L93.469,101.975 L93.455,101.94 C92.973,102.895 92.323,103.095 91.741,103.197 C90.504,103.421 89.275,103.651 88.484,104.213 C88.358,104.244 88.228,104.301 88.087,104.414 C86.189,106.057 86.323,109.991 85.836,113.223 C85.121,116.314 86.002,118.901 86.764,121.529 L87.592,125.026 C87.594,125.878 87.514,126.723 87.412,127.567 L87.284,127.504 C86.058,126.994 85.135,127.226 84.448,128.062 L82.526,134.747 C82.08,135.617 81.685,136.596 83.133,137.232 L90.127,141.148 C90.062,143.357 89.941,145.567 89.736,147.776 C89.573,149.271 89.675,150.836 90.562,152.614 C90.238,153.58 90.637,154.672 90.846,155.726 L90.918,155.691 L90.878,155.967 C92.633,156.617 94.704,157.016 97.667,156.728 C98.089,156.204 97.791,156.041 97.718,155.763 C96.703,155.254 96.201,154.818 95.79,154.393 L95.823,154.402 L95.609,152.433 C95.401,151.528 95.127,150.618 94.82,149.713 C94.467,147.842 95.117,146.848 95.465,145.594 C95.684,147.99 96.028,150.971 96.432,154.226 C96.937,154.299 97.426,154.338 97.901,154.35 L97.969,154.648 C100.726,154.569 102.226,154.602 106.326,154.397 C107.171,153.724 106.521,153.561 106.224,153.283 C104.056,153.213 103.114,152.904 102.136,152.603 L102.305,152.397 C101.321,151.904 100.945,151.471 100.907,151.072 C101.357,150.326 101.506,149.36 100.907,147.851 C100.967,146.012 100.457,144.085 99.942,142.157 C100.368,141.373 100.597,139.139 100.838,136.962 C101.372,133.808 101.408,131.322 101.306,129.049 C101.716,129.217 102.233,128.963 102.449,128.549 C102.161,125.372 101.557,122.193 101.878,119.022 C101.957,119.439 102.022,119.862 102.843,120.094 C103.396,119.838 103.888,119.463 104.348,119.022 L104.308,118.94 C104.481,118.907 104.654,118.871 104.83,118.822 C105.435,118.878 105.945,118.864 105.945,118.52 L106.1,118.342 L106.531,118.367 L106.683,118.312 C107.047,118.701 107.175,118.572 107.161,118.141 L107.946,117.86 C108.179,117.619 107.974,117.6 107.821,117.554 L107.821,117.554 Z M97.897,104.611 C97.981,104.602 98.058,104.587 98.154,104.591 C98.34,104.652 98.493,104.676 98.628,104.68 C98.494,104.678 98.341,104.655 98.154,104.595 C98.058,104.59 97.982,104.605 97.897,104.611 L97.897,104.611 Z M97.294,104.451 L97.297,104.453 L97.3,104.457 L97.288,104.469 L97.294,104.451 L97.294,104.451 Z M98.747,104.666 L98.947,104.61 L98.747,104.666 L98.747,104.666 Z M99.052,104.528 L99.139,104.397 L99.052,104.528 L99.052,104.528 Z M299.605,122.43 C299.752,121.635 299.677,120.839 299.476,120.042 C298.911,118.336 298.524,116.738 298.497,114.879 C297.997,112.777 297.726,112.482 297.388,111.652 C297.259,109.867 296.741,108.082 296.279,106.296 C295.783,103.854 295.502,103.712 295.17,103.36 L295.17,103.359 L295.168,103.358 L295.138,103.327 L295.135,103.347 C294.11,103.009 293.171,102.747 292.283,102.504 L292.301,102.423 C291.382,102.208 290.875,101.993 290.474,101.779 L290.477,101.843 L290.406,101.899 C290.36,101.447 290.014,101.146 289.627,100.778 L289.562,100.895 C289.41,100.469 289.379,100.072 289.365,99.681 C289.492,99.247 289.722,98.913 289.692,98.325 C289.888,98.488 290.006,98.339 290.115,98.163 C290.398,97.836 290.572,97.48 290.507,97.066 C290.584,96.438 290.302,96.378 290.005,96.34 L290.214,96.292 C290.366,95.963 290.322,95.482 290.214,95.066 C289.976,94.276 289.616,93.733 289.301,93.097 C289.033,92.445 288.327,92.312 287.637,92.162 C286.652,92.191 285.999,92.385 285.354,92.581 C284.344,93.065 284.256,93.55 283.789,94.033 C283.76,94.823 283.388,95.556 283.821,96.422 L284.024,96.632 L283.986,96.615 C283.722,96.593 283.606,96.714 283.692,97.034 C283.733,97.168 283.778,97.316 283.826,97.465 L283.712,97.504 L283.734,98.568 C283.671,98.527 283.56,98.51 283.463,98.486 C283.17,98.542 282.876,98.587 282.583,99.228 C282.135,99.581 282.038,100.02 281.93,100.455 C281.979,100.853 282.001,101.252 282.387,101.649 L282.387,102.243 L282.321,102.23 L281.572,103.28 C281.494,103.19 281.403,103.108 281.343,103.004 C279.957,105.091 278.28,107.178 277.365,109.264 C276.618,111.277 277.742,111.831 279.583,112.136 C279.784,112.183 280.041,112.023 280.328,111.721 L282.008,110.776 C282.058,111.381 282.114,111.994 282.192,112.621 C281.706,113.837 281.322,115.053 280.988,116.27 L280.886,116.235 L280.527,117.751 L280.596,117.781 C280.083,119.89 279.682,121.999 279.19,124.109 L281.278,125.076 C281.476,125.149 281.648,125.187 281.811,125.212 C281.681,127.473 281.805,130.044 282.64,133.282 C282.419,136.435 282.653,139.736 282.779,143.004 C282.545,145.781 282.481,148.036 283.101,148.16 C282.973,149.037 282.876,149.946 282.871,150.944 L282.984,150.99 C282.684,151.51 282.337,152.118 282.086,152.587 C281.926,153.21 281.902,153.834 281.925,154.458 C282.431,155.645 283.187,155.083 283.932,154.617 C284.847,154.235 285.235,153.516 285.292,152.587 C285.612,152.763 285.935,152.919 286.376,152.382 C286.386,152.144 286.394,151.907 286.396,151.67 L286.468,151.674 L286.514,150.852 C287.602,149.13 286.316,144.887 287.114,141.725 C287.35,139.084 287.554,136.411 287.667,133.648 C288.102,131.609 288.583,129.571 288.543,127.532 C288.575,130.787 288.355,134.29 289.559,136.385 C289.448,137.771 289.501,139.155 289.88,140.539 C290.059,142.997 290.77,145.14 290.389,147.932 C289.544,149.149 289.97,150.333 290.146,151.55 L290.219,151.551 C290.22,151.776 290.235,152.004 290.295,152.244 C290.59,152.547 290.431,153.025 292.049,152.815 C291.898,153.868 292.812,154.47 293.94,154.983 C295.17,155.562 295.875,155.529 296.06,154.891 C296.192,153.981 294.827,152.425 294.078,151.225 L294.078,139.763 C294.263,137.937 294.506,136.112 294.216,134.286 C294.749,131.637 294.727,128.686 294.519,125.722 L295.236,125.722 C295.027,124.079 294.806,122.449 294.579,120.825 C295.132,121.854 295.728,122.9 296.364,123.961 C296.254,124.017 296.308,124.218 296.377,124.432 C296.465,124.82 296.452,125.107 296.867,125.818 C297.187,126.18 297.411,126.065 297.649,126.012 C297.895,125.818 298.468,125.786 298.66,125.431 C298.975,125.116 299.015,124.735 298.986,124.334 C299.132,123.588 299.322,123.144 299.31,122.325 C299.409,122.36 299.51,122.395 299.605,122.43 L299.605,122.43 Z M284.236,101.592 C284.108,101.648 284.031,101.603 283.972,101.522 L284.236,101.592 L284.236,101.592 Z M284.558,101.536 L284.577,101.532 L284.57,100.305 L284.67,100.326 C285.109,100.357 285.002,99.842 284.735,99.745 L284.567,99.717 L284.566,99.578 L284.735,99.519 C284.81,99.386 284.805,99.27 284.605,99.196 L284.564,99.186 L284.562,98.735 L284.67,98.841 C284.99,99.368 285.006,99.896 285.714,100.423 L285.634,101.256 L285.307,101.848 C284.997,102.146 284.704,102.363 284.422,102.523 C284.557,102.205 284.67,101.885 284.558,101.536 L284.558,101.536 Z M284.359,95.247 L284.355,95.321 L284.343,95.259 L284.359,95.247 L284.359,95.247 Z M283.737,98.75 L283.742,98.983 L283.561,98.939 L283.737,98.75 L283.737,98.75 Z M283.593,100.1 L283.766,100.136 L283.789,101.276 L283.722,101.241 C283.64,100.963 283.572,100.52 283.398,100.423 C283.558,100.387 283.544,100.22 283.593,100.1 L283.593,100.1 Z M293.539,114.17 C293.682,113.643 293.787,113.114 293.905,112.586 C293.895,112.749 293.874,112.908 293.866,113.072 C293.791,113.779 294.043,114.486 294.465,115.192 C294.206,115.307 293.976,115.451 293.771,115.618 C293.69,115.139 293.624,114.645 293.539,114.17 L293.539,114.17 Z M298.13,121.965 L298.125,121.95 L298.139,121.954 L298.13,121.965 L298.13,121.965 Z" id="Fill-28" fill="#515151" sketch:type="MSShapeGroup" mask="url(#mask-2)"></path>
                            </g>
                        </g>
                    </g>
                </g>
            </g>
        </g>
    </g>
</svg>