<?xml version="1.0" encoding="UTF-8" standalone="no"?>
<svg width="360px" height="167px" viewBox="0 0 360 167" version="1.1" xmlns="http://www.w3.org/2000/svg" xmlns:xlink="http://www.w3.org/1999/xlink" xmlns:sketch="http://www.bohemiancoding.com/sketch/ns">
    <!-- Generator: Sketch 3.3.3 (12072) - http://www.bohemiancoding.com/sketch -->
    <title>img_Strong_backend_solution</title>
    <desc>Created with Sketch.</desc>
    <defs></defs>
    <g id="Layout" stroke="none" stroke-width="1" fill="none" fill-rule="evenodd" sketch:type="MSPage">
        <g id="Desktop" sketch:type="MSArtboardGroup" transform="translate(-929.000000, -2798.000000)">
            <g id="Airline-Benefits" sketch:type="MSLayerGroup" transform="translate(0.000000, 1277.000000)">
                <g id="Create-values-with-ease" transform="translate(150.000000, 1374.000000)" sketch:type="MSShapeGroup">
                    <g id="Strong-backend-solution" transform="translate(779.000000, 147.000000)">
                        <g id="img_Strong_backend_solution">
                            <rect id="Frame" fill="#FFFFFF" x="0" y="0" width="360" height="167" rx="6"></rect>
                            <path d="M253.390939,18.1912755 L107.631515,18.1912755 C102.984352,18.1912755 99.2162245,21.9594031 99.2162245,26.6065663 L99.2162245,111.902138 C99.2162245,116.549301 102.984352,120.317429 107.631515,120.317429 L156.163934,120.317429 L154.331015,132.160709 L206.822005,132.160709 L204.989087,120.317429 L253.390939,120.317429 C258.038934,120.317429 261.80623,116.549301 261.80623,111.902138 L261.80623,26.6065663 C261.80623,21.9594031 258.038934,18.1912755 253.390939,18.1912755" id="Fill-1" fill="#76006B"></path>
                            <path d="M218.48399,140.679954 L142.539296,140.679954 L142.539296,133.927097 C142.539296,132.722061 143.515633,131.744893 144.720668,131.744893 L216.301786,131.744893 C217.506821,131.744893 218.48399,132.722061 218.48399,133.927097 L218.48399,140.679954" id="Fill-2" fill="#9F4C97"></path>
                            <path d="M107.631515,116.576745 C105.054286,116.576745 102.956908,114.480199 102.956908,111.902138 L102.956908,26.6065663 C102.956908,24.0293367 105.054286,21.9319592 107.631515,21.9319592 L253.390939,21.9319592 C255.969,21.9319592 258.066378,24.0293367 258.066378,26.6065663 L258.066378,111.902138 C258.066378,114.480199 255.969,116.576745 253.390939,116.576745 L107.631515,116.576745" id="Fill-3" fill="#9F4C97"></path>
                            <path d="M107.841087,27.0223827 L252.769709,27.0223827 L252.769709,111.641837 L107.841087,111.641837 L107.841087,27.0223827 Z" id="Fill-4" fill="#F7EBFF"></path>
                            <path d="M226.76123,136.004515 L251.720189,149.561791 L109.511005,149.561791 L134.313617,136.004515 L226.76123,136.004515" id="Fill-5" fill="#ECC9FF"></path>
                            <path d="M251.137214,152.637168 L110.09398,152.637168 L109.511005,149.561791 L251.720189,149.561791 L251.137214,152.637168" id="Fill-6" fill="#76006B"></path>
                            <path d="M141.404117,139.739378 L132.610434,139.739378 L136.257974,137.636179 L144.22751,137.699383 L141.404117,139.739378 L141.404117,139.739378 Z M150.563719,137.667781 L145.160602,137.699383 L142.492724,139.739378 L148.401474,139.739378 L150.563719,137.667781 L150.563719,137.667781 Z M156.706158,137.699383 L151.341296,137.667781 L149.062622,139.739378 L154.854944,139.739378 L156.706158,137.699383 L156.706158,137.699383 Z M162.693082,137.667781 L157.406393,137.699383 L155.671607,139.739378 L161.54127,139.739378 L162.693082,137.667781 L162.693082,137.667781 Z M169.108296,137.667781 L163.684388,137.636179 L162.39702,139.739378 L168.189342,139.739378 L169.108296,137.667781 L169.108296,137.667781 Z M175.250735,137.667781 L169.846786,137.699383 L169.006005,139.739378 L174.798327,139.739378 L175.250735,137.667781 L175.250735,137.667781 Z M181.393173,137.699383 L176.105653,137.699383 L175.847847,139.739378 L181.446398,139.739378 L181.393173,137.699383 L181.393173,137.699383 Z M187.612954,137.667781 L182.248092,137.667781 L182.340403,139.739378 L188.210898,139.739378 L187.612954,137.667781 L187.612954,137.667781 Z M193.833566,137.699383 L188.351444,137.699383 L188.988474,139.739378 L194.858969,139.739378 L193.833566,137.699383 L193.833566,137.699383 Z M200.130689,137.699383 L194.532969,137.667781 L195.636546,139.739378 L201.623469,139.739378 L200.130689,137.699383 L200.130689,137.699383 Z M206.273959,137.699383 L200.714495,137.667781 L202.277133,139.739378 L208.270709,139.739378 L206.273959,137.699383 L206.273959,137.699383 Z M212.454653,137.699383 L206.895189,137.667781 L208.970944,139.739378 L214.879694,139.739378 L212.454653,137.699383 L212.454653,137.699383 Z M218.636179,137.699383 L213.076714,137.699383 L215.619015,139.739378 L221.488679,139.739378 L218.636179,137.699383 L218.636179,137.699383 Z M224.54576,137.667781 L219.219153,137.667781 L222.228,139.739378 L227.958781,139.736051 L224.54576,137.667781 L224.54576,137.667781 Z M139.537934,141.056684 L130.362531,141.056684 L126.820607,143.178179 L136.603102,143.178179 L139.537934,141.056684 L139.537934,141.056684 Z M146.536122,141.056684 L140.276423,141.056684 L137.448872,143.178179 L144.067005,143.178179 L146.536122,141.056684 L146.536122,141.056684 Z M153.417051,141.056684 L147.274612,141.056684 L144.897806,143.178179 L151.501801,143.178179 L153.417051,141.056684 L153.417051,141.056684 Z M160.375321,141.056684 L154.271969,141.056684 L152.391648,143.178179 L158.922459,143.178179 L160.375321,141.056684 L160.375321,141.056684 Z M167.372679,141.056684 L161.269327,141.056684 L159.913765,143.178179 L166.415469,143.178179 L167.372679,141.056684 L167.372679,141.056684 Z M174.331781,141.056684 L168.112,141.056684 L167.26124,143.178179 L173.880204,143.178179 L174.331781,141.056684 L174.331781,141.056684 Z M181.290883,141.056684 L175.148444,141.056684 L174.798327,143.178179 L181.373214,143.178179 L181.290883,141.056684 L181.290883,141.056684 Z M188.210898,141.056684 L182.223974,141.056684 L182.335413,143.178179 L188.750628,143.178179 L188.210898,141.056684 L188.210898,141.056684 Z M195.247342,141.056684 L189.183077,141.056684 L189.771041,143.178179 L196.258607,143.178179 L195.247342,141.056684 L195.247342,141.056684 Z M202.245531,141.056684 L196.103092,141.056684 L197.191699,143.178179 L203.750786,143.178179 L202.245531,141.056684 L202.245531,141.056684 Z M209.242888,141.056684 L203.062194,141.056684 L204.626495,143.178179 L211.244628,143.178179 L209.242888,141.056684 L209.242888,141.056684 Z M216.162903,141.056684 L210.059551,141.056684 L212.08125,143.128281 L218.573806,143.128281 L216.162903,141.056684 L216.162903,141.056684 Z M223.122005,141.056684 L216.94048,141.056684 L219.56927,143.178179 L226.02773,143.178179 L223.122005,141.056684 L223.122005,141.056684 Z M230.236622,141.056684 L223.782321,141.056684 L226.8735,143.178179 L233.638,143.178179 L230.236622,141.056684 L230.236622,141.056684 Z M139.343332,144.414816 L132.267801,144.414816 L129.344612,146.424041 L136.811842,146.423209 L139.343332,144.414816 L139.343332,144.414816 Z M147.040923,144.414816 L139.977036,144.436439 L137.555321,146.424041 L145.058311,146.424041 L147.040923,144.414816 L147.040923,144.414816 Z M131.606653,144.414816 L124.33652,144.414816 L121.064046,146.424041 L128.613607,146.454811 L131.606653,144.414816 L131.606653,144.414816 Z M154.971372,144.414816 L147.974015,144.414816 L145.983918,146.424041 L153.382122,146.424041 L154.971372,144.414816 L154.971372,144.414816 Z M164.145944,144.414816 L155.748949,144.414816 L154.264485,146.424041 L163.101413,146.454811 L164.145944,144.414816 L164.145944,144.414816 Z M203.52874,144.414816 L165.118122,144.414816 L164.216633,146.424041 L204.842719,146.424041 L203.52874,144.414816 L203.52874,144.414816 Z M217.650694,144.410658 L204.421913,144.414816 L205.84151,146.423209 L219.778842,146.423209 L217.650694,144.410658 L217.650694,144.410658 Z M225.181959,144.414816 L218.261944,144.414816 L220.626276,146.424041 L227.913041,146.486413 L225.181959,144.414816 L225.181959,144.414816 Z M235.873429,144.414816 L226.076796,144.414816 L228.831163,146.454811 L239.211602,146.454811 L235.873429,144.414816 L235.873429,144.414816 Z" id="Fill-7" fill="#9F4C97"></path>
                            <path d="M145.748566,49.2494286 L134.089908,59.3837041 C128.492189,52.9452041 129.173296,43.1876582 135.613459,37.5899388 C138.53748,35.049301 141.87399,33.8010204 145.748566,33.8010204 L145.748566,49.2494286" id="Fill-8" fill="#E20074"></path>
                            <path d="M145.748566,49.2494286 L161.045617,51.399199 C159.858878,59.8477551 152.04652,65.734051 143.597964,64.5464796 C139.763306,64.0075816 136.629714,62.3077245 134.089908,59.3837041 L145.748566,49.2494286" id="Fill-9" fill="#7ECBF6"></path>
                            <path d="M145.748566,49.2494286 L159.74827,42.7202806 C161.05726,45.5278724 161.476403,48.3321378 161.045617,51.399199 L145.748566,49.2494286" id="Fill-10" fill="#D9EEF9"></path>
                            <path d="M145.748566,49.2494286 L145.748566,33.8010204 C151.950051,33.8010204 157.126133,37.0992755 159.74827,42.7202806 L145.748566,49.2494286" id="Fill-11" fill="#1063AD"></path>
                            <path d="M227.43402,70.5633418 L240.562173,70.5633418 L240.562173,103.386219 L227.43402,103.386219 L227.43402,70.5633418 Z" id="Fill-12" fill="#1063AD"></path>
                            <path d="M208.338071,50.0494592 L221.466224,50.0494592 L221.466224,103.386219 L208.338071,103.386219 L208.338071,50.0494592 Z" id="Fill-13" fill="#7ECBF6"></path>
                            <path d="M189.242122,61.4461531 L202.370276,61.4461531 L202.370276,103.386219 L189.242122,103.386219 L189.242122,61.4461531 Z" id="Fill-14" fill="#E20074"></path>
                            <path d="M186.321429,40.8973418 L228.392061,40.8973418 L228.392061,43.4812245 L186.321429,43.4812245 L186.321429,40.8973418 Z" id="Fill-15" fill="#4B4B4B"></path>
                            <path d="M186.321429,35.2289337 L238.835704,35.2289337 L238.835704,37.8128163 L186.321429,37.8128163 L186.321429,35.2289337 Z" id="Fill-16" fill="#4B4B4B"></path>
                            <path d="M167.838393,103.616582 L120.809566,103.616582 C119.557959,103.616582 118.543367,102.601158 118.543367,101.349551 L118.543367,74.5302296 C118.543367,73.2786224 119.557959,72.2640306 120.809566,72.2640306 L167.838393,72.2640306 C169.09,72.2640306 170.104592,73.2786224 170.104592,74.5302296 L170.104592,101.349551 C170.104592,102.601158 169.09,103.616582 167.838393,103.616582 L167.838393,103.616582 Z" id="Stroke-17" stroke="#525252" stroke-width="3"></path>
                            <path d="M162.915959,89.4937959 L153.850332,89.4937959 C153.861143,86.9672959 154.49651,84.7825969 155.948541,83.6973163 C155.948541,83.6973163 157.086214,84.4083622 158.381898,84.4083622 C159.670097,84.4083622 160.81775,83.6973163 160.81775,83.6973163 C162.268949,84.7825969 162.905148,86.9672959 162.915959,89.4937959 L162.915959,89.4937959 Z M158.381898,76.9361429 C156.724454,76.9361429 155.377209,78.2817245 155.377209,79.9433265 C155.377209,80.1620459 155.401327,80.3749439 155.44374,80.5820204 C155.738969,81.9325918 156.942342,82.9488469 158.381898,82.9488469 C159.812306,82.9488469 161.009026,81.9483929 161.313403,80.6127908 L161.313403,80.6086327 C161.365796,80.3949031 161.389913,80.1728571 161.389913,79.9433265 C161.389913,78.2817245 160.041837,76.9361429 158.381898,76.9361429 L158.381898,76.9361429 Z" id="Fill-18" fill="#2AA2FF"></path>
                            <path d="M158.29624,97.1822398 L149.345378,97.1705969 L149.348704,98.8213878 L158.300398,98.8338622 L158.29624,97.1822398" id="Fill-19" fill="#6C6C6C"></path>
                            <path d="M165.844138,93.4507041 L149.335398,93.4498724 L149.340388,95.1098112 L165.848296,95.1131378 L165.844138,93.4507041" id="Fill-20" fill="#6C6C6C"></path>
                            <path d="M123.815087,85.002148 C123.825066,85.491148 124.324878,85.8728673 125.00848,85.9202704 C125.346954,85.9984439 130.802464,86.0150765 131.516837,86.0267194 L131.522658,86.0267194 C131.550102,86.0267194 131.577546,86.0233929 131.604158,86.0175714 C132.943918,85.7082041 141.029051,83.9052245 143.685286,83.2282755 C143.691107,83.2266122 143.696929,83.224949 143.70275,83.2232857 C144.729816,82.9080969 145.952316,81.8727143 145.795138,81.2464949 C145.550638,80.2709898 143.338495,79.8194133 141.149638,80.3009286 C140.159163,80.5296276 138.031015,81.0261122 136.914964,81.2905714 C136.185622,81.2248724 130.283526,78.6784133 128.957071,78.0771429 C128.883888,78.0438776 128.801556,78.0355612 128.722551,78.0538571 C128.445617,78.1203878 128.233551,78.1686224 128.021485,78.2160255 C127.808587,78.2642602 127.595689,78.3124949 127.317092,78.3790255 C127.176546,78.4122908 127.069265,78.5262245 127.043485,78.6692653 C127.018536,78.8114745 127.080077,78.9553469 127.201495,79.0351837 C127.955786,79.5349949 130.194541,81.0510612 132.184638,82.4215918 C132.108128,82.4398878 132.035776,82.457352 131.965087,82.4748163 C131.32473,82.6286684 130.890617,82.7334541 129.955862,82.9488469 L127.895077,82.7567398 L124.308245,80.4082092 C124.22425,80.3533214 124.120296,80.3350255 124.022995,80.3591429 L123.050816,80.5969898 C122.942704,80.623602 122.852056,80.698449 122.806316,80.7999082 C122.759745,80.9013673 122.763071,81.0186276 122.813801,81.1175918 L124.428832,84.2453622 C123.978087,84.4108571 123.810097,84.7218878 123.815087,85.002148" id="Fill-21" fill="#6C6C6C"></path>
                            <path d="M123.105704,90.0659592 L124.506173,90.0659592 L124.506173,99.1315867 L123.105704,99.1315867 L123.105704,90.0659592 Z M128.835653,90.0659592 L129.656474,90.0659592 L129.656474,99.1315867 L128.835653,99.1315867 L128.835653,90.0659592 Z M134.001755,90.0659592 L134.822577,90.0659592 L134.822577,99.1315867 L134.001755,99.1315867 L134.001755,90.0659592 Z M130.997898,90.0659592 L132.671974,90.0659592 L132.671974,99.1315867 L130.997898,99.1315867 L130.997898,90.0659592 Z M136.170653,90.0651276 L137.571122,90.0651276 L137.571122,99.1307551 L136.170653,99.1307551 L136.170653,90.0651276 Z M138.849342,99.1315867 L138.849342,90.0651276 L139.876408,90.0659592 L139.876408,99.1315867 L138.849342,99.1315867 L138.849342,99.1315867 Z" id="Fill-22" fill="#4B4B4B"></path>
                            <path d="M125.840112,90.0659592 L127.514189,90.0659592 L127.514189,99.1315867 L125.840112,99.1315867 L125.840112,90.0659592 Z" id="Fill-23" fill="#2AA2FF"></path>
                        </g>
                    </g>
                </g>
            </g>
        </g>
    </g>
</svg>