<?xml version="1.0" encoding="UTF-8" standalone="no"?>
<svg width="360px" height="167px" viewBox="0 0 360 167" version="1.1" xmlns="http://www.w3.org/2000/svg" xmlns:xlink="http://www.w3.org/1999/xlink" xmlns:sketch="http://www.bohemiancoding.com/sketch/ns">
    <!-- Generator: Sketch 3.3.3 (12072) - http://www.bohemiancoding.com/sketch -->
    <title>img_Monetization_made_simple</title>
    <desc>Created with Sketch.</desc>
    <defs></defs>
    <g id="Layout" stroke="none" stroke-width="1" fill="none" fill-rule="evenodd" sketch:type="MSPage">
        <g id="Desktop" sketch:type="MSArtboardGroup" transform="translate(-150.000000, -2798.000000)">
            <g id="Airline-Benefits" sketch:type="MSLayerGroup" transform="translate(0.000000, 1277.000000)">
                <g id="Create-values-with-ease" transform="translate(150.000000, 1374.000000)" sketch:type="MSShapeGroup">
                    <g id="Monetization-made-simple" transform="translate(0.000000, 147.000000)">
                        <g id="img_Monetization_made_simple">
                            <rect id="Mask" fill="#FFFFFF" x="0" y="0" width="360" height="167" rx="6"></rect>
                            <path d="M252.549,15.764 L121.097,15.764 C116.906,15.764 113.508,19.162 113.508,23.353 L113.508,100.276 C113.508,104.467 116.906,107.865 121.097,107.865 L164.865,107.865 L163.212,118.546 L210.551,118.546 L208.898,107.865 L252.549,107.865 C256.74,107.865 260.138,104.467 260.138,100.276 L260.138,23.353 C260.138,19.162 256.74,15.764 252.549,15.764" id="Fill-1" fill="#76006B"></path>
                            <path d="M221.068,126.229 L152.578,126.229 L152.578,120.139 C152.578,119.052 153.459,118.171 154.546,118.171 L219.1,118.171 C220.187,118.171 221.068,119.052 221.068,120.139 L221.068,126.229 L221.068,126.229 Z M252.549,104.492 C254.874,104.492 256.765,102.601 256.765,100.276 L256.765,23.353 C256.765,21.029 254.874,19.137 252.549,19.137 L121.097,19.137 C118.772,19.137 116.881,21.029 116.881,23.353 L116.881,100.276 C116.881,102.601 118.772,104.492 121.097,104.492 L252.549,104.492 L252.549,104.492 Z" id="Fill-2" fill="#9F4C97"></path>
                            <path d="M121.286,23.728 L251.988,23.728 L251.988,100.041 L121.286,100.041 L121.286,23.728 Z" id="Fill-3" fill="#F7E9FF"></path>
                            <path d="M228.533,122.013 L251.042,134.239 L122.792,134.239 L145.16,122.013 L228.533,122.013" id="Fill-4" fill="#ECC9FF"></path>
                            <path d="M250.516,137.013 L123.318,137.013 L122.792,134.239 L251.042,134.239 L250.516,137.013" id="Fill-5" fill="#76006B"></path>
                            <path d="M151.554,125.38 L143.624,125.38 L146.913,123.484 L154.1,123.541 L151.554,125.38 L151.554,125.38 Z M159.815,123.513 L154.942,123.541 L152.536,125.38 L157.865,125.38 L159.815,123.513 L159.815,123.513 Z M165.355,123.541 L160.516,123.513 L158.461,125.38 L163.685,125.38 L165.355,123.541 L165.355,123.541 Z M170.754,123.513 L165.986,123.541 L164.421,125.38 L169.715,125.38 L170.754,123.513 L170.754,123.513 Z M176.539,123.513 L171.648,123.484 L170.486,125.38 L175.71,125.38 L176.539,123.513 L176.539,123.513 Z M182.078,123.513 L177.205,123.541 L176.447,125.38 L181.671,125.38 L182.078,123.513 L182.078,123.513 Z M187.618,123.541 L182.85,123.541 L182.617,125.38 L187.666,125.38 L187.618,123.541 L187.618,123.541 Z M193.227,123.513 L188.389,123.513 L188.473,125.38 L193.766,125.38 L193.227,123.513 L193.227,123.513 Z M198.837,123.541 L193.893,123.541 L194.468,125.38 L199.762,125.38 L198.837,123.541 L198.837,123.541 Z M204.517,123.541 L199.468,123.513 L200.463,125.38 L205.862,125.38 L204.517,123.541 L204.517,123.541 Z M210.056,123.541 L205.043,123.513 L206.452,125.38 L211.858,125.38 L210.056,123.541 L210.056,123.541 Z M215.631,123.541 L210.617,123.513 L212.489,125.38 L217.818,125.38 L215.631,123.541 L215.631,123.541 Z M221.206,123.541 L216.192,123.541 L218.484,125.38 L223.778,125.38 L221.206,123.541 L221.206,123.541 Z M226.534,123.513 L221.731,123.513 L224.444,125.38 L229.613,125.378 L226.534,123.513 L226.534,123.513 Z M149.871,126.569 L141.597,126.569 L138.402,128.482 L147.224,128.482 L149.871,126.569 L149.871,126.569 Z M156.182,126.569 L150.537,126.569 L147.987,128.482 L153.956,128.482 L156.182,126.569 L156.182,126.569 Z M162.388,126.569 L156.848,126.569 L154.705,128.482 L160.661,128.482 L162.388,126.569 L162.388,126.569 Z M168.663,126.569 L163.159,126.569 L161.463,128.482 L167.353,128.482 L168.663,126.569 L168.663,126.569 Z M174.974,126.569 L169.47,126.569 L168.247,128.482 L174.111,128.482 L174.974,126.569 L174.974,126.569 Z M181.25,126.569 L175.64,126.569 L174.874,128.482 L180.842,128.482 L181.25,126.569 L181.25,126.569 Z M187.526,126.569 L181.986,126.569 L181.671,128.482 L187.6,128.482 L187.526,126.569 L187.526,126.569 Z M193.766,126.569 L188.367,126.569 L188.468,128.482 L194.253,128.482 L193.766,126.569 L193.766,126.569 Z M200.113,126.569 L194.643,126.569 L195.173,128.482 L201.024,128.482 L200.113,126.569 L200.113,126.569 Z M206.423,126.569 L200.884,126.569 L201.866,128.482 L207.781,128.482 L206.423,126.569 L206.423,126.569 Z M212.734,126.569 L207.16,126.569 L208.571,128.482 L214.54,128.482 L212.734,126.569 L212.734,126.569 Z M218.975,126.569 L213.471,126.569 L215.294,128.437 L221.149,128.437 L218.975,126.569 L218.975,126.569 Z M225.251,126.569 L219.676,126.569 L222.047,128.482 L227.871,128.482 L225.251,126.569 L225.251,126.569 Z M231.667,126.569 L225.846,126.569 L228.634,128.482 L234.734,128.482 L231.667,126.569 L231.667,126.569 Z M149.696,129.598 L143.315,129.598 L140.679,131.409 L147.413,131.409 L149.696,129.598 L149.696,129.598 Z M156.638,129.598 L150.267,129.617 L148.083,131.409 L154.85,131.409 L156.638,129.598 L156.638,129.598 Z M142.719,129.598 L136.162,129.598 L133.211,131.409 L140.019,131.437 L142.719,129.598 L142.719,129.598 Z M163.79,129.598 L157.479,129.598 L155.685,131.409 L162.357,131.409 L163.79,129.598 L163.79,129.598 Z M172.064,129.598 L164.491,129.598 L163.152,131.409 L171.122,131.437 L172.064,129.598 L172.064,129.598 Z M207.581,129.598 L172.941,129.598 L172.128,131.409 L208.766,131.409 L207.581,129.598 L207.581,129.598 Z M220.316,129.593 L208.387,129.598 L209.666,131.409 L222.236,131.409 L220.316,129.593 L220.316,129.593 Z M227.109,129.598 L220.868,129.598 L223,131.409 L229.571,131.465 L227.109,129.598 L227.109,129.598 Z M236.75,129.598 L227.915,129.598 L230.4,131.437 L239.761,131.437 L236.75,129.598 L236.75,129.598 Z" id="Fill-6" fill="#9F4C97"></path>
                            <path d="M225.276,79.242 L146.118,79.242 C143.343,79.242 141.072,76.971 141.072,74.195 L141.072,51.487 C141.072,48.712 143.343,46.441 146.118,46.441 L225.276,46.441 C228.051,46.441 230.322,48.712 230.322,51.487 L230.322,74.195 C230.322,76.971 228.051,79.242 225.276,79.242" id="Fill-7" fill="#9F4C97"></path>
                            <path d="M165.312941,71.3111704 L165.312941,54.2841951 L171.387767,54.2841951 C172.593591,54.2841951 173.524971,54.3964597 174.181937,54.6209924 C175.129964,54.9536334 175.832658,55.4941669 176.290039,56.2426091 C176.697524,56.899575 176.901264,57.6313742 176.901264,58.4380286 C176.901264,60.1095496 176.086306,61.323671 174.456365,62.0804292 C176.527055,62.7789753 177.562384,64.1843624 177.562384,66.2966326 C177.562384,68.1427901 176.863849,69.5273874 175.466757,70.4504662 C174.593574,71.0242719 173.42519,71.3111704 171.96157,71.3111704 L165.312941,71.3111704 Z M168.967816,61.1698291 L170.601907,61.1698291 C171.500037,61.1698291 172.140361,61.0326167 172.522899,60.7581879 C173.038492,60.3756508 173.296285,59.8309593 173.296285,59.1240972 C173.296285,58.3507069 172.984439,57.7976996 172.360737,57.4650586 C172.028096,57.2821061 171.441825,57.1906312 170.601907,57.1906312 L168.967816,57.1906312 L168.967816,61.1698291 Z M168.967816,68.4047343 L170.938704,68.4047343 C171.961575,68.4047343 172.685058,68.2342584 173.109175,67.8933014 C173.641401,67.4691841 173.90751,66.8538075 173.90751,66.0471531 C173.90751,65.1074423 173.554084,64.4463283 172.847222,64.0637912 C172.431421,63.8392585 171.745359,63.7269938 170.789016,63.7269938 L168.967816,63.7269938 L168.967816,68.4047343 Z M179.408533,54.2841951 L182.913719,54.2841951 L182.913719,64.2010049 C182.913719,65.8226297 183.138249,66.9535921 183.587314,67.593926 C184.069644,68.267524 184.809759,68.6043179 185.807682,68.6043179 C186.888765,68.6043179 187.624722,68.1427855 188.015575,67.2197067 C188.290004,66.5876889 188.427216,65.577307 188.427216,64.1885309 L188.427216,54.2841951 L192.082091,54.2841951 L192.082091,64.0014213 C192.082091,65.5315698 191.973984,66.6916379 191.757767,67.4816602 C191.383546,68.8371722 190.709958,69.8849756 189.736984,70.6251018 C188.772325,71.356912 187.437623,71.7228116 185.732838,71.7228116 C183.287926,71.7228116 181.53743,70.8995375 180.481294,69.2529646 C180.023913,68.5294705 179.716225,67.6604589 179.55822,66.6459039 C179.458428,65.997254 179.408533,65.0991368 179.408533,63.9515254 L179.408533,54.2841951 Z M193.154853,54.2841951 L197.221368,54.2841951 L200.289966,61.0201414 L203.358564,54.2841951 L207.36271,54.2841951 L202.086218,64.7249118 L202.086218,71.3111704 L198.431344,71.3111704 L198.431344,64.6750159 L193.154853,54.2841951 Z" id="BUY" fill="#FFFFFF"></path>
                            <path d="M175.278,139.975 L82.481,139.975 L82.481,71.864 C82.481,70.204 83.826,68.858 85.486,68.858 L172.273,68.858 C173.933,68.858 175.278,70.204 175.278,71.864 L175.278,139.975 L175.278,139.975 Z" id="Fill-8" fill="#408F9A"></path>
                            <path d="M175.278,139.975 L82.481,139.975 L82.481,71.864 C82.481,70.204 83.826,68.858 85.486,68.858 L172.273,68.858 C173.933,68.858 175.278,70.204 175.278,71.864 L175.278,139.975 L175.278,139.975 Z" id="Stroke-9" stroke="#006971" stroke-width="3"></path>
                            <path d="M86.76,73.091 L171,73.091 L171,128.212 L86.76,128.212 L86.76,73.091 Z" id="Fill-10" fill="#DDF2F2"></path>
                            <path d="M175.279,131.209 L198.447,144.859 L59.313,144.859 L81.481,131.209 L175.279,131.209" id="Fill-11" fill="#C2DCDF"></path>
                            <path d="M198.447,144.859 L198.447,150.244 C198.447,151.489 197.437,152.498 196.192,152.498 L61.567,152.498 C60.322,152.498 59.313,151.489 59.313,150.244 L59.313,144.859 L198.447,144.859 Z M141.908,141.455 L121.095,141.455 L120.677,143.482 L142.608,143.482 L141.908,141.455 L141.908,141.455 Z M89.991,134.506 L81.195,134.506 L83.615,132.943 L91.965,132.943 L89.991,134.506 L89.991,134.506 Z M98.623,132.943 L92.976,132.943 L91.057,134.506 L97.005,134.506 L98.623,132.943 L98.623,132.943 Z M104.742,132.943 L99.206,132.943 L97.619,134.506 L103.451,134.506 L104.742,132.943 L104.742,132.943 Z M111.053,132.943 L105.472,132.943 L104.221,134.506 L110.1,134.506 L111.053,132.943 L111.053,132.943 Z M117.346,132.943 L111.83,132.943 L110.918,134.506 L116.729,134.506 L117.346,132.943 L117.346,132.943 Z M123.6,132.943 L118.096,132.943 L117.52,134.506 L123.317,134.506 L123.6,132.943 L123.6,132.943 Z M129.873,132.943 L124.564,132.943 L124.333,134.506 L129.926,134.506 L129.873,132.943 L129.873,132.943 Z M136.3,132.943 L130.701,132.943 L130.799,134.506 L136.697,134.506 L136.3,132.943 L136.3,132.943 Z M142.554,132.943 L136.986,132.943 L137.419,134.506 L143.285,134.506 L142.554,132.943 L142.554,132.943 Z M148.942,132.943 L143.27,132.943 L144.04,134.506 L150.015,134.506 L148.942,132.943 L148.942,132.943 Z M155.254,132.943 L149.573,132.943 L150.68,134.506 L156.664,134.506 L155.254,132.943 L155.254,132.943 Z M161.527,132.943 L155.931,132.943 L157.377,134.506 L163.273,134.506 L161.527,132.943 L161.527,132.943 Z M167.742,132.943 L162.215,132.943 L163.998,134.506 L169.82,134.506 L167.742,132.943 L167.742,132.943 Z M173.938,132.943 L168.463,132.943 L170.58,134.506 L176.347,134.506 L173.938,132.943 L173.938,132.943 Z M87.37,135.491 L79.226,135.491 L76.542,137.17 L85.177,137.17 L87.37,135.491 L87.37,135.491 Z M94.453,135.491 L88.151,135.491 L86,137.17 L92.635,137.17 L94.453,135.491 L94.453,135.491 Z M101.518,135.491 L95.191,135.491 L93.411,137.17 L100.073,137.17 L101.518,135.491 L101.518,135.491 Z M108.544,135.491 L102.305,135.491 L100.901,137.17 L107.47,137.17 L108.544,135.491 L108.544,135.491 Z M115.647,135.491 L109.436,135.491 L108.409,137.17 L114.948,137.17 L115.647,135.491 L115.647,135.491 Z M122.731,135.491 L116.403,135.491 L115.744,137.17 L122.406,137.17 L122.731,135.491 L122.731,135.491 Z M129.815,135.491 L123.553,135.491 L123.271,137.17 L129.864,137.17 L129.815,135.491 L129.815,135.491 Z M136.821,135.491 L130.721,135.491 L130.818,137.17 L137.24,137.17 L136.821,135.491 L136.821,135.491 Z M143.904,135.491 L137.742,135.491 L138.211,137.17 L144.698,137.17 L143.904,135.491 L143.904,135.491 Z M151.027,135.491 L144.782,135.491 L145.622,137.17 L152.197,137.17 L151.027,135.491 L151.027,135.491 Z M158.149,135.491 L151.859,135.491 L153.073,137.17 L159.695,137.17 L158.149,135.491 L158.149,135.491 Z M165.156,135.491 L158.991,135.491 L160.581,137.17 L167.072,137.17 L165.156,135.491 L165.156,135.491 Z M172.182,135.491 L166.013,135.491 L167.974,137.17 L174.469,137.17 L172.182,135.491 L172.182,135.491 Z M178.242,135.491 L172.961,135.491 L175.289,137.17 L180.911,137.17 L178.242,135.491 L178.242,135.491 Z M79.456,138.096 L74.505,138.096 L71.929,139.66 L77.21,139.66 L79.456,138.096 L79.456,138.096 Z M87.235,138.096 L80.11,138.096 L77.893,139.66 L85.342,139.66 L87.235,138.096 L87.235,138.096 Z M95.129,138.096 L87.938,138.096 L86.077,139.66 L93.595,139.66 L95.129,138.096 L95.129,138.096 Z M103.081,138.096 L95.969,138.096 L94.473,139.66 L101.909,139.66 L103.081,138.096 L103.081,138.096 Z M112.385,138.096 L103.871,138.096 L102.734,139.66 L111.635,139.66 L112.385,138.096 L112.385,138.096 Z M152.273,138.096 L113.399,138.096 L112.695,139.66 L153.337,139.66 L152.273,138.096 L152.273,138.096 Z M166.518,138.096 L153.167,138.096 L154.271,139.66 L168.229,139.66 L166.518,138.096 L166.518,138.096 Z M174.249,138.096 L167.319,138.096 L169.066,139.66 L176.311,139.66 L174.249,138.096 L174.249,138.096 Z M182.761,138.096 L175.128,138.096 L177.23,139.66 L185.315,139.66 L182.761,138.096 L182.761,138.096 Z" id="Fill-12" fill="#408F9A"></path>
                            <path d="M159.048,114.107 L99.846,114.107 C97.77,114.107 96.072,112.409 96.072,110.333 L96.072,93.35 C96.072,91.274 97.77,89.576 99.846,89.576 L159.048,89.576 C161.124,89.576 162.822,91.274 162.822,93.35 L162.822,110.333 C162.822,112.409 161.124,114.107 159.048,114.107" id="Fill-13" fill="#408F9A"></path>
                            <path d="M168.202,120.676 L189.998,120.676 L189.998,151.702 L168.202,151.702 L168.202,120.676 Z" id="Fill-14" fill="#EFEEDA"></path>
                            <path d="M190.777,118.007 C190.777,116.288 189.383,114.894 187.663,114.894 L170.426,114.894 C168.707,114.894 167.313,116.288 167.313,118.007 L167.313,154.149 C167.313,155.869 168.707,157.263 170.426,157.263 L187.663,157.263 C189.383,157.263 190.777,155.869 190.777,154.149 L190.777,118.007 L190.777,118.007 Z M189.331,150.368 C189.331,150.675 189.082,150.924 188.775,150.924 L169.426,150.924 C169.118,150.924 168.869,150.675 168.869,150.368 L168.869,122.122 C168.869,121.815 169.118,121.566 169.426,121.566 L188.775,121.566 C189.082,121.566 189.331,121.815 189.331,122.122 L189.331,150.368 L189.331,150.368 Z" id="Fill-15" fill="#BABD5A"></path>
                            <path d="M190.777,118.007 C190.777,116.288 189.383,114.894 187.663,114.894 L170.426,114.894 C168.707,114.894 167.313,116.288 167.313,118.007 L167.313,154.149 C167.313,155.869 168.707,157.263 170.426,157.263 L187.663,157.263 C189.383,157.263 190.777,155.869 190.777,154.149 L190.777,118.007 L190.777,118.007 Z M189.331,150.368 C189.331,150.675 189.082,150.924 188.775,150.924 L169.426,150.924 C169.118,150.924 168.869,150.675 168.869,150.368 L168.869,122.122 C168.869,121.815 169.118,121.566 169.426,121.566 L188.775,121.566 C189.082,121.566 189.331,121.815 189.331,122.122 L189.331,150.368 L189.331,150.368 Z" id="Stroke-16" stroke="#939A00" stroke-width="0.593"></path>
                            <path d="M179.184,155.595 C178.371,155.595 177.71,154.934 177.71,154.121 C177.71,153.309 178.371,152.648 179.184,152.648 C179.996,152.648 180.657,153.309 180.657,154.121 C180.657,154.934 179.996,155.595 179.184,155.595" id="Fill-17" fill="#BABD5A"></path>
                            <path d="M179.184,152.944 C179.834,152.944 180.361,153.471 180.361,154.121 C180.361,154.771 179.834,155.298 179.184,155.298 C178.534,155.298 178.007,154.771 178.007,154.121 C178.007,153.471 178.534,152.944 179.184,152.944 M179.184,152.351 C178.208,152.351 177.414,153.145 177.414,154.121 C177.414,155.097 178.208,155.891 179.184,155.891 C180.16,155.891 180.954,155.097 180.954,154.121 C180.954,153.145 180.16,152.351 179.184,152.351" id="Fill-18" fill="#939A00"></path>
                            <path d="M185.932,139.532 L171.963,139.532 C171.473,139.532 171.072,139.131 171.072,138.641 L171.072,134.634 C171.072,134.144 171.473,133.744 171.963,133.744 L185.932,133.744 C186.421,133.744 186.822,134.144 186.822,134.634 L186.822,138.641 C186.822,139.131 186.421,139.532 185.932,139.532" id="Fill-19" fill="#BABD5A"></path>
                            <path d="M221.574,91.198 L294.136,91.198 L294.136,146.503 L221.574,146.503 L221.574,91.198 Z" id="Fill-20" fill="#DFEEF2"></path>
                            <path d="M221.574,91.198 L294.136,91.198 L294.136,146.503 L221.574,146.503 L221.574,91.198 Z" id="Stroke-21" stroke="#269DDA" stroke-width="1.247"></path>
                            <path d="M214.488,149.111 L214.488,88.608 C214.488,87.057 215.745,85.801 217.295,85.801 L298.382,85.801 C299.932,85.801 301.188,87.057 301.188,88.608 L301.188,149.111 C301.188,150.661 299.932,151.918 298.382,151.918 L217.295,151.918 C215.745,151.918 214.488,150.661 214.488,149.111 L214.488,149.111 Z M222.675,144.744 L222.675,92.974 C222.675,92.629 222.954,92.35 223.298,92.35 L292.534,92.35 C292.878,92.35 293.158,92.629 293.158,92.974 L293.158,144.744 C293.158,145.089 292.878,145.368 292.534,145.368 L223.298,145.368 C222.954,145.368 222.675,145.089 222.675,144.744 L222.675,144.744 Z M294.847,118.911 C294.847,117.677 295.824,116.676 297.03,116.676 C298.235,116.676 299.213,117.677 299.213,118.911 C299.213,120.146 298.235,121.146 297.03,121.146 C295.824,121.146 294.847,120.146 294.847,118.911 L294.847,118.911 Z" id="Fill-22" fill="#64B9E4"></path>
                            <path d="M214.488,149.111 L214.488,88.608 C214.488,87.057 215.745,85.801 217.295,85.801 L298.382,85.801 C299.932,85.801 301.188,87.057 301.188,88.608 L301.188,149.111 C301.188,150.661 299.932,151.918 298.382,151.918 L217.295,151.918 C215.745,151.918 214.488,150.661 214.488,149.111 L214.488,149.111 Z M222.675,144.744 L222.675,92.974 C222.675,92.629 222.954,92.35 223.298,92.35 L292.534,92.35 C292.878,92.35 293.158,92.629 293.158,92.974 L293.158,144.744 C293.158,145.089 292.878,145.368 292.534,145.368 L223.298,145.368 C222.954,145.368 222.675,145.089 222.675,144.744 L222.675,144.744 Z M294.847,118.911 C294.847,117.677 295.824,116.676 297.03,116.676 C298.235,116.676 299.213,117.677 299.213,118.911 C299.213,120.146 298.235,121.146 297.03,121.146 C295.824,121.146 294.847,120.146 294.847,118.911 L294.847,118.911 Z" id="Stroke-23" stroke="#269DDA" stroke-width="1.247"></path>
                            <path d="M295.193,118.911 C295.193,117.873 296.016,117.031 297.03,117.031 C298.044,117.031 298.866,117.873 298.866,118.911 C298.866,119.949 298.044,120.792 297.03,120.792 C296.016,120.792 295.193,119.949 295.193,118.911" id="Fill-24" fill="#64B9E4"></path>
                            <path d="M282.061,128.876 L234.833,128.876 C233.177,128.876 231.822,127.521 231.822,125.866 L231.822,112.317 C231.822,110.661 233.177,109.306 234.833,109.306 L282.061,109.306 C283.717,109.306 285.072,110.661 285.072,112.317 L285.072,125.866 C285.072,127.521 283.717,128.876 282.061,128.876" id="Fill-25" fill="#28ACE0"></path>
                            <path d="M246.286903,124.245483 L246.286903,114.086497 L249.911391,114.086497 C250.630834,114.086497 251.186534,114.153479 251.578507,114.287444 C252.144138,114.485911 252.563393,114.808416 252.836286,115.254967 C253.079408,115.646939 253.200967,116.08356 253.200967,116.564843 C253.200967,117.562141 252.71473,118.286535 251.742241,118.738047 C252.977699,119.154828 253.595419,119.99334 253.595419,121.253606 C253.595419,122.355098 253.178644,123.181206 252.345082,123.731952 C251.824106,124.074308 251.127,124.245483 250.253745,124.245483 L246.286903,124.245483 Z M248.46755,118.194746 L249.442515,118.194746 C249.978376,118.194746 250.360419,118.11288 250.588657,117.949145 C250.896281,117.720907 251.05009,117.395922 251.05009,116.97418 C251.05009,116.512743 250.86403,116.182797 250.491904,115.98433 C250.293437,115.875173 249.943644,115.820595 249.442515,115.820595 L248.46755,115.820595 L248.46755,118.194746 Z M248.46755,122.511385 L249.643462,122.511385 C250.253748,122.511385 250.685408,122.409672 250.938453,122.206243 C251.256001,121.953198 251.414772,121.586039 251.414772,121.104756 C251.414772,120.544087 251.203904,120.149639 250.782161,119.921402 C250.534077,119.787437 250.124745,119.720455 249.554152,119.720455 L248.46755,119.720455 L248.46755,122.511385 Z M254.696906,114.086497 L256.788243,114.086497 L256.788243,120.003269 C256.788243,120.970796 256.922206,121.645575 257.190137,122.027624 C257.477914,122.42952 257.919497,122.630465 258.514898,122.630465 C259.159917,122.630465 259.599018,122.355096 259.832217,121.804349 C259.995953,121.427262 260.077819,120.824427 260.077819,119.995827 L260.077819,114.086497 L262.258466,114.086497 L262.258466,119.884189 C262.258466,120.797138 262.193965,121.489282 262.064962,121.960642 C261.841686,122.769395 261.439796,123.394557 260.85928,123.836147 C260.283725,124.272774 259.487388,124.491085 258.470243,124.491085 C257.01151,124.491085 255.967092,123.999886 255.336959,123.017474 C255.064067,122.585808 254.880488,122.06732 254.786216,121.461995 C254.726675,121.074984 254.696906,120.539131 254.696906,119.85442 L254.696906,114.086497 Z M262.898519,114.086497 L265.324768,114.086497 L267.155618,118.105437 L268.986468,114.086497 L271.375505,114.086497 L268.227335,120.315853 L268.227335,124.245483 L266.046689,124.245483 L266.046689,120.286083 L262.898519,114.086497 Z" id="BUY" fill="#FFFFFF"></path>
                            <path d="M114.203305,108.738988 L114.203305,96.004498 L118.746673,96.004498 C119.64851,96.004498 120.34509,96.0884609 120.836436,96.2563891 C121.545466,96.5051716 122.071011,96.909437 122.413087,97.4691977 C122.717845,97.9605431 122.870222,98.5078564 122.870222,99.1111539 C122.870222,100.361286 122.260714,101.269328 121.04168,101.835309 C122.590351,102.357752 123.364675,103.408842 123.364675,104.988611 C123.364675,106.369354 122.84224,107.404895 121.797353,108.095267 C121.144299,108.524417 120.270464,108.738988 119.175821,108.738988 L114.203305,108.738988 Z M116.936789,101.15427 L118.158927,101.15427 C118.83064,101.15427 119.309539,101.051649 119.595639,100.846403 C119.981252,100.560303 120.174055,100.152928 120.174055,99.6242652 C120.174055,99.0458459 119.940825,98.6322512 119.474358,98.3834687 C119.225576,98.2466384 118.787103,98.1782242 118.158927,98.1782242 L116.936789,98.1782242 L116.936789,101.15427 Z M116.936789,106.565262 L118.410818,106.565262 C119.175825,106.565262 119.716918,106.437763 120.034116,106.182761 C120.432168,105.865563 120.631191,105.405323 120.631191,104.802025 C120.631191,104.099214 120.366864,103.604767 119.838201,103.318667 C119.527223,103.150739 119.014116,103.066776 118.298867,103.066776 L116.936789,103.066776 L116.936789,106.565262 Z M124.745411,96.004498 L127.366943,96.004498 L127.366943,103.421289 C127.366943,104.634104 127.534869,105.479952 127.870725,105.958858 C128.23146,106.462642 128.784993,106.714531 129.53134,106.714531 C130.339883,106.714531 130.890306,106.36935 131.182626,105.678979 C131.387871,105.206292 131.490493,104.450627 131.490493,103.41196 L131.490493,96.004498 L134.223977,96.004498 L134.223977,103.27202 C134.223977,104.41642 134.143123,105.284036 133.981415,105.874894 C133.701535,106.888683 133.197758,107.672336 132.470069,108.225877 C131.7486,108.773198 130.750375,109.046855 129.475364,109.046855 C127.646813,109.046855 126.337615,108.431128 125.54773,107.199654 C125.205655,106.658552 124.975534,106.008618 124.857363,105.249831 C124.782728,104.764705 124.745411,104.093003 124.745411,103.234703 L124.745411,96.004498 Z M135.026296,96.004498 L138.067647,96.004498 L140.362654,101.042318 L142.657661,96.004498 L145.652365,96.004498 L141.706073,103.81312 L141.706073,108.738988 L138.972589,108.738988 L138.972589,103.775802 L135.026296,96.004498 Z" id="BUY" fill="#FFFFFF"></path>
                            <path d="M175.333335,138.300049 L175.333335,135.295316 L176.405353,135.295316 C176.618143,135.295316 176.782503,135.315127 176.898437,135.35475 C177.065735,135.413451 177.189738,135.508838 177.270452,135.640915 C177.34236,135.756849 177.378314,135.885989 177.378314,136.028339 C177.378314,136.32331 177.234499,136.537565 176.946865,136.671109 C177.312278,136.794381 177.494981,137.042388 177.494981,137.415138 C177.494981,137.740928 177.371711,137.985266 177.125168,138.148161 C176.971078,138.24942 176.764895,138.300049 176.506611,138.300049 L175.333335,138.300049 Z M175.978307,136.510417 L176.266673,136.510417 C176.425165,136.510417 176.538162,136.486203 176.605668,136.437775 C176.696655,136.370269 176.742147,136.274148 176.742147,136.149408 C176.742147,136.012929 176.687116,135.91534 176.577052,135.85664 C176.518351,135.824354 176.414892,135.808212 176.266673,135.808212 L175.978307,135.808212 L175.978307,136.510417 Z M175.978307,137.787153 L176.326107,137.787153 C176.506612,137.787153 176.634284,137.757069 176.709128,137.696901 C176.803049,137.622057 176.850009,137.513463 176.850009,137.371113 C176.850009,137.205283 176.787641,137.088617 176.662901,137.021111 C176.589525,136.981488 176.468457,136.961677 176.299692,136.961677 L175.978307,136.961677 L175.978307,137.787153 Z M177.820769,135.295316 L178.439326,135.295316 L178.439326,137.045325 C178.439326,137.331492 178.478948,137.531071 178.558194,137.644071 C178.643311,137.76294 178.773918,137.822373 178.95002,137.822373 C179.140798,137.822373 179.270672,137.740927 179.339645,137.578032 C179.388073,137.466501 179.412287,137.2882 179.412287,137.043124 L179.412287,135.295316 L180.057259,135.295316 L180.057259,137.010105 C180.057259,137.280129 180.038182,137.484845 180.000026,137.624259 C179.933988,137.863465 179.81512,138.04837 179.64342,138.178979 C179.473188,138.308121 179.237654,138.372691 178.936813,138.372691 C178.505362,138.372691 178.196453,138.227408 178.010078,137.936839 C177.929365,137.809165 177.875067,137.655812 177.847184,137.476774 C177.829574,137.362307 177.820769,137.203818 177.820769,137.0013 L177.820769,135.295316 Z M180.246568,135.295316 L180.964182,135.295316 L181.505694,136.484001 L182.047207,135.295316 L182.753814,135.295316 L181.822677,137.137779 L181.822677,138.300049 L181.177705,138.300049 L181.177705,137.128973 L180.246568,135.295316 Z" id="BUY" fill="#FFFFFF"></path>
                        </g>
                    </g>
                </g>
            </g>
        </g>
    </g>
</svg>